<?xml version="1.0" encoding="utf-8"?>
<svg xmlns="http://www.w3.org/2000/svg" xmlns:xlink="http://www.w3.org/1999/xlink" width="600" height="400" viewBox="0 0 2400 1600">
<defs>
  <clipPath id="clip810">
    <rect x="0" y="0" width="2400" height="1600"/>
  </clipPath>
</defs>
<path clip-path="url(#clip810)" d="M0 1600 L2400 1600 L2400 0 L0 0  Z" fill="#ffffff" fill-rule="evenodd" fill-opacity="1"/>
<defs>
  <clipPath id="clip811">
    <rect x="480" y="0" width="1681" height="1600"/>
  </clipPath>
</defs>
<path clip-path="url(#clip810)" d="M248.574 1423.18 L2352.76 1423.18 L2352.76 47.2441 L248.574 47.2441  Z" fill="#ffffff" fill-rule="evenodd" fill-opacity="1"/>
<defs>
  <clipPath id="clip812">
    <rect x="248" y="47" width="2105" height="1377"/>
  </clipPath>
</defs>
<polyline clip-path="url(#clip812)" style="stroke:#000000; stroke-linecap:round; stroke-linejoin:round; stroke-width:2; stroke-opacity:0.1; fill:none" points="308.126,1423.18 308.126,47.2441 "/>
<polyline clip-path="url(#clip812)" style="stroke:#000000; stroke-linecap:round; stroke-linejoin:round; stroke-width:2; stroke-opacity:0.1; fill:none" points="804.396,1423.18 804.396,47.2441 "/>
<polyline clip-path="url(#clip812)" style="stroke:#000000; stroke-linecap:round; stroke-linejoin:round; stroke-width:2; stroke-opacity:0.1; fill:none" points="1300.66,1423.18 1300.66,47.2441 "/>
<polyline clip-path="url(#clip812)" style="stroke:#000000; stroke-linecap:round; stroke-linejoin:round; stroke-width:2; stroke-opacity:0.1; fill:none" points="1796.93,1423.18 1796.93,47.2441 "/>
<polyline clip-path="url(#clip812)" style="stroke:#000000; stroke-linecap:round; stroke-linejoin:round; stroke-width:2; stroke-opacity:0.1; fill:none" points="2293.2,1423.18 2293.2,47.2441 "/>
<polyline clip-path="url(#clip810)" style="stroke:#000000; stroke-linecap:round; stroke-linejoin:round; stroke-width:4; stroke-opacity:1; fill:none" points="248.574,1423.18 2352.76,1423.18 "/>
<polyline clip-path="url(#clip810)" style="stroke:#000000; stroke-linecap:round; stroke-linejoin:round; stroke-width:4; stroke-opacity:1; fill:none" points="308.126,1423.18 308.126,1404.28 "/>
<polyline clip-path="url(#clip810)" style="stroke:#000000; stroke-linecap:round; stroke-linejoin:round; stroke-width:4; stroke-opacity:1; fill:none" points="804.396,1423.18 804.396,1404.28 "/>
<polyline clip-path="url(#clip810)" style="stroke:#000000; stroke-linecap:round; stroke-linejoin:round; stroke-width:4; stroke-opacity:1; fill:none" points="1300.66,1423.18 1300.66,1404.28 "/>
<polyline clip-path="url(#clip810)" style="stroke:#000000; stroke-linecap:round; stroke-linejoin:round; stroke-width:4; stroke-opacity:1; fill:none" points="1796.93,1423.18 1796.93,1404.28 "/>
<polyline clip-path="url(#clip810)" style="stroke:#000000; stroke-linecap:round; stroke-linejoin:round; stroke-width:4; stroke-opacity:1; fill:none" points="2293.2,1423.18 2293.2,1404.28 "/>
<path clip-path="url(#clip810)" d="M285.511 1454.1 Q281.9 1454.1 280.071 1457.66 Q278.265 1461.2 278.265 1468.33 Q278.265 1475.44 280.071 1479.01 Q281.9 1482.55 285.511 1482.55 Q289.145 1482.55 290.951 1479.01 Q292.779 1475.44 292.779 1468.33 Q292.779 1461.2 290.951 1457.66 Q289.145 1454.1 285.511 1454.1 M285.511 1450.39 Q291.321 1450.39 294.376 1455 Q297.455 1459.58 297.455 1468.33 Q297.455 1477.06 294.376 1481.67 Q291.321 1486.25 285.511 1486.25 Q279.701 1486.25 276.622 1481.67 Q273.566 1477.06 273.566 1468.33 Q273.566 1459.58 276.622 1455 Q279.701 1450.39 285.511 1450.39 Z" fill="#000000" fill-rule="nonzero" fill-opacity="1" /><path clip-path="url(#clip810)" d="M305.673 1479.7 L310.557 1479.7 L310.557 1485.58 L305.673 1485.58 L305.673 1479.7 Z" fill="#000000" fill-rule="nonzero" fill-opacity="1" /><path clip-path="url(#clip810)" d="M330.742 1454.1 Q327.131 1454.1 325.302 1457.66 Q323.497 1461.2 323.497 1468.33 Q323.497 1475.44 325.302 1479.01 Q327.131 1482.55 330.742 1482.55 Q334.376 1482.55 336.182 1479.01 Q338.01 1475.44 338.01 1468.33 Q338.01 1461.2 336.182 1457.66 Q334.376 1454.1 330.742 1454.1 M330.742 1450.39 Q336.552 1450.39 339.608 1455 Q342.686 1459.58 342.686 1468.33 Q342.686 1477.06 339.608 1481.67 Q336.552 1486.25 330.742 1486.25 Q324.932 1486.25 321.853 1481.67 Q318.798 1477.06 318.798 1468.33 Q318.798 1459.58 321.853 1455 Q324.932 1450.39 330.742 1450.39 Z" fill="#000000" fill-rule="nonzero" fill-opacity="1" /><path clip-path="url(#clip810)" d="M782.278 1454.1 Q778.667 1454.1 776.838 1457.66 Q775.032 1461.2 775.032 1468.33 Q775.032 1475.44 776.838 1479.01 Q778.667 1482.55 782.278 1482.55 Q785.912 1482.55 787.718 1479.01 Q789.546 1475.44 789.546 1468.33 Q789.546 1461.2 787.718 1457.66 Q785.912 1454.1 782.278 1454.1 M782.278 1450.39 Q788.088 1450.39 791.143 1455 Q794.222 1459.58 794.222 1468.33 Q794.222 1477.06 791.143 1481.67 Q788.088 1486.25 782.278 1486.25 Q776.468 1486.25 773.389 1481.67 Q770.333 1477.06 770.333 1468.33 Q770.333 1459.58 773.389 1455 Q776.468 1450.39 782.278 1450.39 Z" fill="#000000" fill-rule="nonzero" fill-opacity="1" /><path clip-path="url(#clip810)" d="M802.44 1479.7 L807.324 1479.7 L807.324 1485.58 L802.44 1485.58 L802.44 1479.7 Z" fill="#000000" fill-rule="nonzero" fill-opacity="1" /><path clip-path="url(#clip810)" d="M817.555 1451.02 L835.912 1451.02 L835.912 1454.96 L821.838 1454.96 L821.838 1463.43 Q822.856 1463.08 823.875 1462.92 Q824.893 1462.73 825.912 1462.73 Q831.699 1462.73 835.078 1465.9 Q838.458 1469.08 838.458 1474.49 Q838.458 1480.07 834.986 1483.17 Q831.514 1486.25 825.194 1486.25 Q823.018 1486.25 820.75 1485.88 Q818.504 1485.51 816.097 1484.77 L816.097 1480.07 Q818.18 1481.2 820.403 1481.76 Q822.625 1482.32 825.102 1482.32 Q829.106 1482.32 831.444 1480.21 Q833.782 1478.1 833.782 1474.49 Q833.782 1470.88 831.444 1468.77 Q829.106 1466.67 825.102 1466.67 Q823.227 1466.67 821.352 1467.08 Q819.5 1467.5 817.555 1468.38 L817.555 1451.02 Z" fill="#000000" fill-rule="nonzero" fill-opacity="1" /><path clip-path="url(#clip810)" d="M1267.82 1481.64 L1275.46 1481.64 L1275.46 1455.28 L1267.15 1456.95 L1267.15 1452.69 L1275.41 1451.02 L1280.09 1451.02 L1280.09 1481.64 L1287.73 1481.64 L1287.73 1485.58 L1267.82 1485.58 L1267.82 1481.64 Z" fill="#000000" fill-rule="nonzero" fill-opacity="1" /><path clip-path="url(#clip810)" d="M1297.17 1479.7 L1302.05 1479.7 L1302.05 1485.58 L1297.17 1485.58 L1297.17 1479.7 Z" fill="#000000" fill-rule="nonzero" fill-opacity="1" /><path clip-path="url(#clip810)" d="M1322.24 1454.1 Q1318.63 1454.1 1316.8 1457.66 Q1314.99 1461.2 1314.99 1468.33 Q1314.99 1475.44 1316.8 1479.01 Q1318.63 1482.55 1322.24 1482.55 Q1325.87 1482.55 1327.68 1479.01 Q1329.51 1475.44 1329.51 1468.33 Q1329.51 1461.2 1327.68 1457.66 Q1325.87 1454.1 1322.24 1454.1 M1322.24 1450.39 Q1328.05 1450.39 1331.1 1455 Q1334.18 1459.58 1334.18 1468.33 Q1334.18 1477.06 1331.1 1481.67 Q1328.05 1486.25 1322.24 1486.25 Q1316.43 1486.25 1313.35 1481.67 Q1310.29 1477.06 1310.29 1468.33 Q1310.29 1459.58 1313.35 1455 Q1316.43 1450.39 1322.24 1450.39 Z" fill="#000000" fill-rule="nonzero" fill-opacity="1" /><path clip-path="url(#clip810)" d="M1764.58 1481.64 L1772.22 1481.64 L1772.22 1455.28 L1763.91 1456.95 L1763.91 1452.69 L1772.18 1451.02 L1776.85 1451.02 L1776.85 1481.64 L1784.49 1481.64 L1784.49 1485.58 L1764.58 1485.58 L1764.58 1481.64 Z" fill="#000000" fill-rule="nonzero" fill-opacity="1" /><path clip-path="url(#clip810)" d="M1793.94 1479.7 L1798.82 1479.7 L1798.82 1485.58 L1793.94 1485.58 L1793.94 1479.7 Z" fill="#000000" fill-rule="nonzero" fill-opacity="1" /><path clip-path="url(#clip810)" d="M1809.05 1451.02 L1827.41 1451.02 L1827.41 1454.96 L1813.33 1454.96 L1813.33 1463.43 Q1814.35 1463.08 1815.37 1462.92 Q1816.39 1462.73 1817.41 1462.73 Q1823.2 1462.73 1826.58 1465.9 Q1829.95 1469.08 1829.95 1474.49 Q1829.95 1480.07 1826.48 1483.17 Q1823.01 1486.25 1816.69 1486.25 Q1814.52 1486.25 1812.25 1485.88 Q1810 1485.51 1807.59 1484.77 L1807.59 1480.07 Q1809.68 1481.2 1811.9 1481.76 Q1814.12 1482.32 1816.6 1482.32 Q1820.6 1482.32 1822.94 1480.21 Q1825.28 1478.1 1825.28 1474.49 Q1825.28 1470.88 1822.94 1468.77 Q1820.6 1466.67 1816.6 1466.67 Q1814.72 1466.67 1812.85 1467.08 Q1811 1467.5 1809.05 1468.38 L1809.05 1451.02 Z" fill="#000000" fill-rule="nonzero" fill-opacity="1" /><path clip-path="url(#clip810)" d="M2264.44 1481.64 L2280.76 1481.64 L2280.76 1485.58 L2258.82 1485.58 L2258.82 1481.64 Q2261.48 1478.89 2266.06 1474.26 Q2270.67 1469.61 2271.85 1468.27 Q2274.09 1465.74 2274.97 1464.01 Q2275.88 1462.25 2275.88 1460.56 Q2275.88 1457.8 2273.93 1456.07 Q2272.01 1454.33 2268.91 1454.33 Q2266.71 1454.33 2264.26 1455.09 Q2261.83 1455.86 2259.05 1457.41 L2259.05 1452.69 Q2261.87 1451.55 2264.33 1450.97 Q2266.78 1450.39 2268.82 1450.39 Q2274.19 1450.39 2277.38 1453.08 Q2280.58 1455.77 2280.58 1460.26 Q2280.58 1462.39 2279.77 1464.31 Q2278.98 1466.2 2276.87 1468.8 Q2276.29 1469.47 2273.19 1472.69 Q2270.09 1475.88 2264.44 1481.64 Z" fill="#000000" fill-rule="nonzero" fill-opacity="1" /><path clip-path="url(#clip810)" d="M2290.58 1479.7 L2295.46 1479.7 L2295.46 1485.58 L2290.58 1485.58 L2290.58 1479.7 Z" fill="#000000" fill-rule="nonzero" fill-opacity="1" /><path clip-path="url(#clip810)" d="M2315.65 1454.1 Q2312.03 1454.1 2310.21 1457.66 Q2308.4 1461.2 2308.4 1468.33 Q2308.4 1475.44 2310.21 1479.01 Q2312.03 1482.55 2315.65 1482.55 Q2319.28 1482.55 2321.09 1479.01 Q2322.91 1475.44 2322.91 1468.33 Q2322.91 1461.2 2321.09 1457.66 Q2319.28 1454.1 2315.65 1454.1 M2315.65 1450.39 Q2321.46 1450.39 2324.51 1455 Q2327.59 1459.58 2327.59 1468.33 Q2327.59 1477.06 2324.51 1481.67 Q2321.46 1486.25 2315.65 1486.25 Q2309.84 1486.25 2306.76 1481.67 Q2303.7 1477.06 2303.7 1468.33 Q2303.7 1459.58 2306.76 1455 Q2309.84 1450.39 2315.65 1450.39 Z" fill="#000000" fill-rule="nonzero" fill-opacity="1" /><path clip-path="url(#clip810)" d="M1309.14 1531.91 Q1309.14 1532.81 1308.72 1533.04 Q1308.3 1533.23 1307.14 1533.23 L1300.96 1533.23 L1296.06 1552.69 Q1295.67 1554.39 1295.67 1555.84 Q1295.67 1557.45 1296.16 1558.16 Q1296.67 1558.87 1297.74 1558.87 Q1299.83 1558.87 1302.08 1556.97 Q1304.37 1555.07 1306.3 1550.43 Q1306.56 1549.82 1306.69 1549.69 Q1306.85 1549.53 1307.27 1549.53 Q1308.07 1549.53 1308.07 1550.17 Q1308.07 1550.4 1307.62 1551.43 Q1307.2 1552.46 1306.27 1553.97 Q1305.37 1555.49 1304.18 1556.9 Q1303.02 1558.32 1301.25 1559.35 Q1299.47 1560.35 1297.57 1560.35 Q1294.9 1560.35 1293.19 1558.64 Q1291.52 1556.94 1291.52 1554.26 Q1291.52 1553.39 1292.2 1550.62 Q1292.87 1547.82 1296.54 1533.23 L1290.71 1533.23 Q1289.91 1533.23 1289.59 1533.2 Q1289.3 1533.17 1289.07 1533.01 Q1288.88 1532.81 1288.88 1532.43 Q1288.88 1531.82 1289.14 1531.56 Q1289.39 1531.27 1289.72 1531.24 Q1290.07 1531.17 1290.88 1531.17 L1297.06 1531.17 L1299.64 1520.71 Q1299.89 1519.67 1300.54 1519.09 Q1301.21 1518.48 1301.6 1518.42 Q1301.99 1518.32 1302.28 1518.32 Q1303.15 1518.32 1303.66 1518.81 Q1304.18 1519.26 1304.18 1520.09 Q1304.18 1520.54 1301.47 1531.17 L1307.27 1531.17 Q1308.01 1531.17 1308.3 1531.2 Q1308.62 1531.24 1308.88 1531.4 Q1309.14 1531.56 1309.14 1531.91 Z" fill="#000000" fill-rule="nonzero" fill-opacity="1" /><polyline clip-path="url(#clip812)" style="stroke:#000000; stroke-linecap:round; stroke-linejoin:round; stroke-width:2; stroke-opacity:0.1; fill:none" points="248.574,1423.18 2352.76,1423.18 "/>
<polyline clip-path="url(#clip812)" style="stroke:#000000; stroke-linecap:round; stroke-linejoin:round; stroke-width:2; stroke-opacity:0.1; fill:none" points="248.574,1079.2 2352.76,1079.2 "/>
<polyline clip-path="url(#clip812)" style="stroke:#000000; stroke-linecap:round; stroke-linejoin:round; stroke-width:2; stroke-opacity:0.1; fill:none" points="248.574,735.212 2352.76,735.212 "/>
<polyline clip-path="url(#clip812)" style="stroke:#000000; stroke-linecap:round; stroke-linejoin:round; stroke-width:2; stroke-opacity:0.1; fill:none" points="248.574,391.228 2352.76,391.228 "/>
<polyline clip-path="url(#clip812)" style="stroke:#000000; stroke-linecap:round; stroke-linejoin:round; stroke-width:2; stroke-opacity:0.1; fill:none" points="248.574,47.2441 2352.76,47.2441 "/>
<polyline clip-path="url(#clip810)" style="stroke:#000000; stroke-linecap:round; stroke-linejoin:round; stroke-width:4; stroke-opacity:1; fill:none" points="248.574,1423.18 248.574,47.2441 "/>
<polyline clip-path="url(#clip810)" style="stroke:#000000; stroke-linecap:round; stroke-linejoin:round; stroke-width:4; stroke-opacity:1; fill:none" points="248.574,1423.18 267.472,1423.18 "/>
<polyline clip-path="url(#clip810)" style="stroke:#000000; stroke-linecap:round; stroke-linejoin:round; stroke-width:4; stroke-opacity:1; fill:none" points="248.574,1079.2 267.472,1079.2 "/>
<polyline clip-path="url(#clip810)" style="stroke:#000000; stroke-linecap:round; stroke-linejoin:round; stroke-width:4; stroke-opacity:1; fill:none" points="248.574,735.212 267.472,735.212 "/>
<polyline clip-path="url(#clip810)" style="stroke:#000000; stroke-linecap:round; stroke-linejoin:round; stroke-width:4; stroke-opacity:1; fill:none" points="248.574,391.228 267.472,391.228 "/>
<polyline clip-path="url(#clip810)" style="stroke:#000000; stroke-linecap:round; stroke-linejoin:round; stroke-width:4; stroke-opacity:1; fill:none" points="248.574,47.2441 267.472,47.2441 "/>
<path clip-path="url(#clip810)" d="M120.7 1423.63 L150.375 1423.63 L150.375 1427.57 L120.7 1427.57 L120.7 1423.63 Z" fill="#000000" fill-rule="nonzero" fill-opacity="1" /><path clip-path="url(#clip810)" d="M161.278 1436.52 L168.917 1436.52 L168.917 1410.16 L160.607 1411.83 L160.607 1407.57 L168.871 1405.9 L173.546 1405.9 L173.546 1436.52 L181.185 1436.52 L181.185 1440.46 L161.278 1440.46 L161.278 1436.52 Z" fill="#000000" fill-rule="nonzero" fill-opacity="1" /><path clip-path="url(#clip810)" d="M200.63 1408.98 Q197.019 1408.98 195.19 1412.54 Q193.384 1416.08 193.384 1423.21 Q193.384 1430.32 195.19 1433.89 Q197.019 1437.43 200.63 1437.43 Q204.264 1437.43 206.069 1433.89 Q207.898 1430.32 207.898 1423.21 Q207.898 1416.08 206.069 1412.54 Q204.264 1408.98 200.63 1408.98 M200.63 1405.27 Q206.44 1405.27 209.495 1409.88 Q212.574 1414.46 212.574 1423.21 Q212.574 1431.94 209.495 1436.55 Q206.44 1441.13 200.63 1441.13 Q194.82 1441.13 191.741 1436.55 Q188.685 1431.94 188.685 1423.21 Q188.685 1414.46 191.741 1409.88 Q194.82 1405.27 200.63 1405.27 Z" fill="#000000" fill-rule="nonzero" fill-opacity="1" /><path clip-path="url(#clip810)" d="M151.857 1079.65 L181.533 1079.65 L181.533 1083.58 L151.857 1083.58 L151.857 1079.65 Z" fill="#000000" fill-rule="nonzero" fill-opacity="1" /><path clip-path="url(#clip810)" d="M191.671 1061.92 L210.028 1061.92 L210.028 1065.85 L195.954 1065.85 L195.954 1074.32 Q196.972 1073.98 197.991 1073.81 Q199.009 1073.63 200.028 1073.63 Q205.815 1073.63 209.194 1076.8 Q212.574 1079.97 212.574 1085.39 Q212.574 1090.97 209.102 1094.07 Q205.63 1097.15 199.31 1097.15 Q197.134 1097.15 194.866 1096.78 Q192.62 1096.41 190.213 1095.67 L190.213 1090.97 Q192.296 1092.1 194.519 1092.66 Q196.741 1093.21 199.218 1093.21 Q203.222 1093.21 205.56 1091.11 Q207.898 1089 207.898 1085.39 Q207.898 1081.78 205.56 1079.67 Q203.222 1077.56 199.218 1077.56 Q197.343 1077.56 195.468 1077.98 Q193.616 1078.4 191.671 1079.28 L191.671 1061.92 Z" fill="#000000" fill-rule="nonzero" fill-opacity="1" /><path clip-path="url(#clip810)" d="M200.63 721.011 Q197.019 721.011 195.19 724.575 Q193.384 728.117 193.384 735.247 Q193.384 742.353 195.19 745.918 Q197.019 749.46 200.63 749.46 Q204.264 749.46 206.069 745.918 Q207.898 742.353 207.898 735.247 Q207.898 728.117 206.069 724.575 Q204.264 721.011 200.63 721.011 M200.63 717.307 Q206.44 717.307 209.495 721.913 Q212.574 726.497 212.574 735.247 Q212.574 743.973 209.495 748.58 Q206.44 753.163 200.63 753.163 Q194.82 753.163 191.741 748.58 Q188.685 743.973 188.685 735.247 Q188.685 726.497 191.741 721.913 Q194.82 717.307 200.63 717.307 Z" fill="#000000" fill-rule="nonzero" fill-opacity="1" /><path clip-path="url(#clip810)" d="M191.671 373.948 L210.028 373.948 L210.028 377.883 L195.954 377.883 L195.954 386.355 Q196.972 386.008 197.991 385.846 Q199.009 385.661 200.028 385.661 Q205.815 385.661 209.194 388.832 Q212.574 392.003 212.574 397.42 Q212.574 402.999 209.102 406.101 Q205.63 409.179 199.31 409.179 Q197.134 409.179 194.866 408.809 Q192.62 408.439 190.213 407.698 L190.213 402.999 Q192.296 404.133 194.519 404.689 Q196.741 405.244 199.218 405.244 Q203.222 405.244 205.56 403.138 Q207.898 401.031 207.898 397.42 Q207.898 393.809 205.56 391.703 Q203.222 389.596 199.218 389.596 Q197.343 389.596 195.468 390.013 Q193.616 390.429 191.671 391.309 L191.671 373.948 Z" fill="#000000" fill-rule="nonzero" fill-opacity="1" /><path clip-path="url(#clip810)" d="M161.278 60.5889 L168.917 60.5889 L168.917 34.2233 L160.607 35.89 L160.607 31.6308 L168.871 29.9641 L173.546 29.9641 L173.546 60.5889 L181.185 60.5889 L181.185 64.5241 L161.278 64.5241 L161.278 60.5889 Z" fill="#000000" fill-rule="nonzero" fill-opacity="1" /><path clip-path="url(#clip810)" d="M200.63 33.0428 Q197.019 33.0428 195.19 36.6076 Q193.384 40.1492 193.384 47.2788 Q193.384 54.3853 195.19 57.9501 Q197.019 61.4917 200.63 61.4917 Q204.264 61.4917 206.069 57.9501 Q207.898 54.3853 207.898 47.2788 Q207.898 40.1492 206.069 36.6076 Q204.264 33.0428 200.63 33.0428 M200.63 29.3391 Q206.44 29.3391 209.495 33.9456 Q212.574 38.5289 212.574 47.2788 Q212.574 56.0056 209.495 60.6121 Q206.44 65.1954 200.63 65.1954 Q194.82 65.1954 191.741 60.6121 Q188.685 56.0056 188.685 47.2788 Q188.685 38.5289 191.741 33.9456 Q194.82 29.3391 200.63 29.3391 Z" fill="#000000" fill-rule="nonzero" fill-opacity="1" /><path clip-path="url(#clip810)" d="M16.8612 826.77 Q17.3443 826.77 18.0528 827.125 Q18.6969 827.447 19.1156 828.123 Q19.5021 828.767 19.5021 829.476 Q19.5021 829.701 19.3732 830.216 Q18.9868 831.086 18.1172 832.439 Q17.2476 833.791 16.7001 835.015 Q16.1204 836.207 16.056 837.527 Q16.056 838.687 16.4747 839.653 Q16.9578 840.522 17.9884 841.102 Q18.4071 841.36 19.1156 841.36 Q20.114 841.36 21.4344 840.812 Q22.7548 840.265 24.4618 839.137 Q26.1687 837.978 27.3281 837.141 Q28.4553 836.303 30.3232 834.854 Q30.4842 834.725 30.5809 834.661 Q30.6453 834.596 30.8063 834.5 Q30.9351 834.403 31.0317 834.307 Q34.8642 831.247 39.0832 830.474 Q40.5647 830.281 42.1106 830.281 Q45.2023 830.281 48.8416 831.215 Q52.1588 832.02 55.0251 833.727 Q57.8592 835.434 59.7272 838.01 Q61.5951 840.554 61.5951 843.324 Q61.5951 846.062 60.4035 848.316 Q59.1797 850.57 57.0863 851.923 Q54.3166 853.759 50.4841 853.759 Q48.3263 853.759 46.4906 853.244 Q43.5598 852.535 40.8545 850.86 Q38.1492 849.186 36.0559 846.77 Q32.9641 843.099 32.0945 839.105 Q28.5519 840.973 25.8144 842.068 Q23.0447 843.131 20.6937 843.131 Q18.6325 843.131 17.3121 842.358 Q15.895 841.682 15.0898 840.297 Q14.3813 839.137 14.0271 837.463 Q13.8982 836.432 13.8982 835.756 Q13.8982 833.469 15.1543 828.155 Q15.4763 826.77 16.8612 826.77 M44.7514 834.822 Q42.7869 834.822 41.4664 835.144 Q38.2459 835.756 33.8015 838.203 L33.4794 838.397 Q34.3812 841.521 37.1187 844.065 Q40.4681 847.253 46.8126 848.864 Q50.3553 849.733 52.352 849.733 Q54.5098 849.733 56.3778 848.928 Q58.1169 848.155 59.1153 846.706 Q60.1136 845.224 60.1136 843.26 Q60.1136 841.778 59.2763 840.49 Q58.4067 839.202 56.8931 838.268 Q55.3794 837.334 53.7369 836.69 Q52.0622 836.013 50.0976 835.498 Q47.4567 834.822 44.7514 834.822 Z" fill="#000000" fill-rule="nonzero" fill-opacity="1" /><path clip-path="url(#clip810)" d="M36.0559 790.593 Q37.8594 790.593 38.89 791.72 Q39.8884 792.848 39.8884 794.136 Q39.8884 795.36 39.1798 796.004 Q38.4713 796.648 37.5695 796.648 Q36.3457 796.648 35.2829 795.746 Q34.2201 794.844 33.9947 793.492 Q33.1573 794.812 33.1573 796.777 Q33.1573 798.065 33.8337 799.192 Q34.51 800.287 35.3795 800.963 Q36.2491 801.608 37.5051 802.187 Q38.7289 802.735 39.4697 802.96 Q40.1782 803.153 40.9512 803.314 L49.9688 805.569 Q54.2522 806.664 55.7659 806.664 Q57.6338 806.664 58.8898 805.762 Q60.1136 804.86 60.1136 803.057 Q60.1136 802.348 59.9204 801.543 Q59.695 800.738 59.1153 799.707 Q58.5033 798.645 57.6016 797.711 Q56.6676 796.744 55.0895 795.811 Q53.5114 794.877 51.4825 794.265 Q50.7739 794.071 50.7739 793.427 Q50.7739 792.622 51.4181 792.622 Q51.9656 792.622 53.125 793.073 Q54.2522 793.492 55.7336 794.426 Q57.1829 795.327 58.5033 796.519 Q59.7916 797.711 60.6933 799.482 Q61.5951 801.253 61.5951 803.186 Q61.5951 805.955 60.1136 807.791 Q58.6322 809.627 56.571 810.303 Q56.8608 810.464 57.2473 810.69 Q57.6338 810.915 58.5033 811.591 Q59.3407 812.236 59.9848 812.976 Q60.5967 813.717 61.0798 814.876 Q61.5951 816.004 61.5951 817.227 Q61.5951 818.773 61.1442 820.158 Q60.6933 821.511 59.6628 822.477 Q58.6322 823.443 57.2151 823.443 Q55.637 823.443 54.542 822.38 Q53.4148 821.285 53.4148 819.804 Q53.4148 818.87 53.9623 818.129 Q54.5098 817.356 55.7014 817.356 Q57.0219 817.356 58.0203 818.258 Q59.0186 819.16 59.2763 820.448 Q60.1136 819.128 60.1136 817.163 Q60.1136 815.037 58.2457 813.363 Q56.3778 811.688 53.2538 810.883 Q45.7498 808.886 42.4004 808.113 Q39.0188 807.34 37.5695 807.34 Q36.2169 807.34 35.2829 807.694 Q34.349 808.049 33.9303 808.661 Q33.4794 809.24 33.3184 809.788 Q33.1573 810.303 33.1573 810.883 Q33.1573 811.849 33.5438 812.944 Q33.9303 814.007 34.832 815.295 Q35.7016 816.551 37.5051 817.743 Q39.3087 818.934 41.7885 819.739 Q42.5292 819.9 42.5292 820.609 Q42.497 821.382 41.8529 821.382 Q41.3054 821.382 40.1782 820.963 Q39.0188 820.512 37.5695 819.611 Q36.1203 818.677 34.832 817.485 Q33.5116 816.261 32.6098 814.49 Q31.7081 812.686 31.7081 810.754 Q31.7081 809.884 31.9013 809.047 Q32.0623 808.178 32.5454 807.147 Q33.0285 806.084 34.0913 805.15 Q35.1541 804.216 36.7 803.637 Q35.9592 803.25 35.2507 802.735 Q34.5422 802.187 33.6726 801.35 Q32.7709 800.48 32.2556 799.289 Q31.7081 798.065 31.7081 796.712 Q31.7081 795.392 32.0623 794.104 Q32.3844 792.815 33.4472 791.72 Q34.4778 790.593 36.0559 790.593 Z" fill="#000000" fill-rule="nonzero" fill-opacity="1" /><path clip-path="url(#clip810)" d="M44.365 781.866 Q33.2217 781.866 24.2363 777.711 Q20.4682 775.94 17.3121 773.46 Q14.1559 770.98 12.771 769.338 Q11.3862 767.695 11.3862 767.245 Q11.3862 766.6 12.0303 766.568 Q12.3523 766.568 13.1575 767.438 Q23.9787 778.066 44.365 778.034 Q64.8157 778.034 75.2182 767.695 Q76.3454 766.568 76.6997 766.568 Q77.3438 766.568 77.3438 767.245 Q77.3438 767.695 76.0233 769.274 Q74.7029 770.852 71.6755 773.299 Q68.6482 775.747 64.9445 777.518 Q55.9591 781.866 44.365 781.866 Z" fill="#000000" fill-rule="nonzero" fill-opacity="1" /><path clip-path="url(#clip810)" d="M33.1573 741.297 Q34.0591 741.297 34.2845 741.716 Q34.4778 742.134 34.4778 743.294 L34.4778 749.477 L53.9301 754.373 Q55.637 754.759 57.0863 754.759 Q58.6966 754.759 59.4051 754.276 Q60.1136 753.761 60.1136 752.698 Q60.1136 750.605 58.2135 748.35 Q56.3133 746.064 51.6757 744.131 Q51.0638 743.874 50.935 743.745 Q50.7739 743.584 50.7739 743.165 Q50.7739 742.36 51.4181 742.36 Q51.6435 742.36 52.6741 742.811 Q53.7047 743.229 55.2184 744.163 Q56.732 745.065 58.1491 746.257 Q59.5661 747.416 60.5967 749.188 Q61.5951 750.959 61.5951 752.859 Q61.5951 755.532 59.8882 757.239 Q58.1813 758.914 55.5082 758.914 Q54.6386 758.914 51.8689 758.237 Q49.067 757.561 34.4778 753.89 L34.4778 759.719 Q34.4778 760.524 34.4456 760.846 Q34.4134 761.136 34.2523 761.361 Q34.0591 761.555 33.6726 761.555 Q33.0607 761.555 32.8031 761.297 Q32.5132 761.039 32.481 760.717 Q32.4166 760.363 32.4166 759.558 L32.4166 753.374 L21.9497 750.798 Q20.9191 750.54 20.3394 749.896 Q19.7275 749.22 19.6631 748.833 Q19.5665 748.447 19.5665 748.157 Q19.5665 747.287 20.0495 746.772 Q20.5004 746.257 21.3378 746.257 Q21.7887 746.257 32.4166 748.962 L32.4166 743.165 Q32.4166 742.424 32.4488 742.134 Q32.481 741.812 32.642 741.555 Q32.8031 741.297 33.1573 741.297 Z" fill="#000000" fill-rule="nonzero" fill-opacity="1" /><path clip-path="url(#clip810)" d="M59.7916 737.048 Q58.7288 737.982 57.3439 737.982 Q55.9591 737.982 54.9285 737.08 Q53.8657 736.146 53.8657 734.471 Q53.8657 732.507 55.7659 731.379 Q57.6338 730.252 60.79 730.252 Q64.2038 730.252 67.36 731.637 Q70.5483 733.022 72.062 734.375 Q73.5757 735.727 73.5757 736.275 Q73.5757 736.919 72.8672 736.919 Q72.6095 736.919 72.1264 736.468 Q67.0379 731.734 60.79 731.701 Q59.7916 731.701 59.7916 731.83 L59.9204 731.991 Q60.8544 733.119 60.8544 734.471 Q60.8544 736.114 59.7916 737.048 Z" fill="#000000" fill-rule="nonzero" fill-opacity="1" /><path clip-path="url(#clip810)" d="M42.2394 674.976 Q46.9414 674.976 51.4825 677.36 Q56.0235 679.711 58.8254 683.414 Q61.5951 687.118 61.5951 690.886 Q61.5951 693.14 60.3713 694.654 Q59.1153 696.136 57.3439 696.941 Q59.5339 697.553 64.7835 698.873 Q70.033 700.193 70.5483 700.193 Q70.8382 700.193 70.967 700.129 Q71.0958 700.065 71.2569 699.775 Q71.4501 699.485 71.5145 698.776 Q71.6111 698.068 71.6111 696.876 Q71.6111 696.264 71.6111 696.039 Q71.6433 695.781 71.8044 695.556 Q71.9654 695.298 72.3197 695.298 Q73.6401 695.298 73.6401 696.49 Q73.6401 697.553 73.5435 699.743 Q73.4469 701.933 73.4469 703.028 Q73.4469 703.962 73.5435 705.829 Q73.6401 707.697 73.6401 708.567 Q73.6401 709.437 72.8672 709.437 Q72.4163 709.437 72.1264 709.308 Q71.8688 709.211 71.74 708.953 Q71.6433 708.696 71.6111 708.47 Q71.6111 708.277 71.6111 707.891 Q71.6111 706.409 71.3535 705.765 Q71.128 705.121 70.645 704.896 Q70.1941 704.638 68.9058 704.348 L39.5341 696.941 Q37.5695 696.49 36.1847 696.49 Q34.4456 696.49 33.8015 697.037 Q33.1573 697.585 33.1573 698.551 Q33.1573 700.226 35.1541 701.321 Q37.1509 702.416 41.0156 703.35 Q42.0784 703.639 42.3038 703.833 Q42.5292 703.994 42.5292 704.477 Q42.497 705.282 41.8529 705.282 Q41.6919 705.282 40.6613 705.024 Q39.5985 704.767 38.0526 704.284 Q36.4745 703.768 35.4762 703.221 Q34.7998 702.899 34.349 702.609 Q33.8981 702.319 33.1895 701.739 Q32.481 701.127 32.0945 700.258 Q31.7081 699.388 31.7081 698.326 Q31.7081 696.264 32.9319 694.557 Q34.1557 692.851 36.6356 692.4 Q34.4778 690.564 33.0929 688.309 Q31.7081 686.055 31.7081 683.768 Q31.7081 679.968 34.671 677.488 Q37.6017 674.976 42.2394 674.976 M39.3409 679.743 Q36.4101 679.743 34.7998 680.87 Q33.1573 681.965 33.1573 683.962 Q33.1573 686.442 35.6694 689.308 Q38.0526 692.142 40.2748 692.722 L53.1894 695.974 L54.2522 696.168 Q54.4454 696.168 55.0251 696.071 Q55.5726 695.942 56.4744 695.588 Q57.3761 695.202 58.1813 694.686 Q58.9542 694.139 59.5339 693.173 Q60.1136 692.174 60.1136 690.95 Q60.1136 688.986 58.3745 686.86 Q56.6354 684.702 53.3504 683.092 Q51.2248 682.094 46.6516 680.934 Q42.0462 679.743 39.3409 679.743 Z" fill="#000000" fill-rule="nonzero" fill-opacity="1" /><path clip-path="url(#clip810)" d="M77.0208 668.272 Q70.235 668.272 66.5378 666.558 Q61.037 664.169 61.037 658.532 Q61.037 657.338 61.3752 656.098 Q61.6908 654.835 62.9307 653.257 Q64.1707 651.657 66.1996 650.687 Q70.1223 648.839 77.0208 648.839 Q83.7615 648.839 87.4362 650.552 Q92.8017 653.054 92.8017 658.578 Q92.8017 660.652 91.7421 662.771 Q90.6825 664.867 88.135 666.197 Q84.3251 668.272 77.0208 668.272 M76.4572 664.439 Q83.4233 664.439 86.1963 663.943 Q89.1946 663.379 90.5022 661.846 Q91.7872 660.291 91.7872 658.578 Q91.7872 656.729 90.412 655.196 Q89.0143 653.64 86.0159 653.167 Q83.0626 652.648 76.4572 652.671 Q70.0321 652.671 67.4621 653.122 Q64.4637 653.731 63.2689 655.354 Q62.0515 656.954 62.0515 658.578 Q62.0515 659.186 62.2319 659.84 Q62.4122 660.471 62.9307 661.396 Q63.4493 662.32 64.7343 663.041 Q66.0193 663.74 67.9581 664.078 Q70.4605 664.439 76.4572 664.439 Z" fill="#000000" fill-rule="nonzero" fill-opacity="1" /><path clip-path="url(#clip810)" d="M76.6997 641.992 Q76.3776 641.992 75.5725 641.155 Q64.7513 630.527 44.365 630.527 Q23.9143 630.527 13.5762 640.736 Q12.3846 641.992 12.0303 641.992 Q11.3862 641.992 11.3862 641.348 Q11.3862 640.897 12.7066 639.319 Q14.0271 637.709 17.0544 635.294 Q20.0818 632.846 23.7854 631.042 Q32.7709 626.695 44.365 626.695 Q55.5082 626.695 64.4936 630.849 Q68.2617 632.621 71.4179 635.1 Q74.5741 637.58 75.9589 639.223 Q77.3438 640.865 77.3438 641.348 Q77.3438 641.992 76.6997 641.992 Z" fill="#000000" fill-rule="nonzero" fill-opacity="1" /><polyline clip-path="url(#clip812)" style="stroke:#009af9; stroke-linecap:round; stroke-linejoin:round; stroke-width:4; stroke-opacity:1; fill:none" points="308.126,735.212 328.178,494.148 348.229,305.511 368.28,160.678 388.331,52.3097 408.383,-25.8244 428.434,-78.9965 448.485,-111.65 468.537,-127.513 488.588,-129.691 508.639,-120.754 528.69,-102.803 548.742,-77.5295 568.793,-46.268 588.844,-10.0346 608.896,30.4382 628.947,74.6744 648.998,122.434 669.049,173.698 689.101,228.66 709.152,287.718 729.203,351.482 749.255,420.771 769.306,496.632 789.357,580.348 809.408,673.466 829.46,777.816 849.511,895.552 869.562,1029.18 889.614,1181.63 909.665,1356.27 929.716,1557.01 949.767,1788.35 969.819,2055.47 989.87,2364.36 1009.92,2721.87 1029.97,3135.92 1050.02,3615.56 1070.08,4171.23 1090.13,4814.88 1110.18,5560.27 1130.23,6423.14 1150.28,7421.57 1170.33,8576.28 1190.38,9911.03 1210.43,11453 1230.49,13233.5 1250.54,15288 1270.59,17657.6 1290.64,20389 1310.69,23535.7 1330.74,27158.9 1350.79,31328.7 1370.84,36125 1390.9,41639.4 1410.95,47976.3 1431,55255.1 1451.05,63612.2 1471.1,73203.1 1491.15,84205.7 1511.2,96822.6 1531.25,111285 1551.31,127858 1571.36,146841 1591.41,168577 1611.46,193460 1631.51,221933 1651.56,254506 1671.61,291757 1691.67,334347 1711.72,383027 1731.77,438653 1751.82,502198 1771.87,574773 1791.92,657641 1811.97,752237 1832.02,860198 1852.08,983385 1872.13,1.12391e+06 1892.18,1.28419e+06 1912.23,1.46695e+06 1932.28,1.67532e+06 1952.33,1.91282e+06 1972.38,2.18349e+06 1992.43,2.4919e+06 2012.49,2.84324e+06 2032.54,3.24341e+06 2052.59,3.69912e+06 2072.64,4.1943e+06 2092.69,4.1943e+06 2112.74,4.1943e+06 2132.79,4.1943e+06 2152.84,4.1943e+06 2172.9,4.1943e+06 2192.95,4.1943e+06 2213,4.1943e+06 2233.05,4.1943e+06 2253.1,4.1943e+06 2273.15,4.1943e+06 2293.2,4.1943e+06 "/>
</svg>
