<?xml version="1.0" encoding="utf-8"?>
<svg xmlns="http://www.w3.org/2000/svg" xmlns:xlink="http://www.w3.org/1999/xlink" width="600" height="400" viewBox="0 0 2400 1600">
<defs>
  <clipPath id="clip990">
    <rect x="0" y="0" width="2400" height="1600"/>
  </clipPath>
</defs>
<path clip-path="url(#clip990)" d="M0 1600 L2400 1600 L2400 0 L0 0  Z" fill="#ffffff" fill-rule="evenodd" fill-opacity="1"/>
<defs>
  <clipPath id="clip991">
    <rect x="480" y="0" width="1681" height="1600"/>
  </clipPath>
</defs>
<path clip-path="url(#clip990)" d="M219.033 623.18 L2352.76 623.18 L2352.76 47.2441 L219.033 47.2441  Z" fill="#ffffff" fill-rule="evenodd" fill-opacity="1"/>
<defs>
  <clipPath id="clip992">
    <rect x="219" y="47" width="2135" height="577"/>
  </clipPath>
</defs>
<polyline clip-path="url(#clip992)" style="stroke:#000000; stroke-linecap:round; stroke-linejoin:round; stroke-width:2; stroke-opacity:0.1; fill:none" points="279.421,623.18 279.421,47.2441 "/>
<polyline clip-path="url(#clip992)" style="stroke:#000000; stroke-linecap:round; stroke-linejoin:round; stroke-width:2; stroke-opacity:0.1; fill:none" points="664.943,623.18 664.943,47.2441 "/>
<polyline clip-path="url(#clip992)" style="stroke:#000000; stroke-linecap:round; stroke-linejoin:round; stroke-width:2; stroke-opacity:0.1; fill:none" points="1050.46,623.18 1050.46,47.2441 "/>
<polyline clip-path="url(#clip992)" style="stroke:#000000; stroke-linecap:round; stroke-linejoin:round; stroke-width:2; stroke-opacity:0.1; fill:none" points="1435.99,623.18 1435.99,47.2441 "/>
<polyline clip-path="url(#clip992)" style="stroke:#000000; stroke-linecap:round; stroke-linejoin:round; stroke-width:2; stroke-opacity:0.1; fill:none" points="1821.51,623.18 1821.51,47.2441 "/>
<polyline clip-path="url(#clip992)" style="stroke:#000000; stroke-linecap:round; stroke-linejoin:round; stroke-width:2; stroke-opacity:0.1; fill:none" points="2207.03,623.18 2207.03,47.2441 "/>
<polyline clip-path="url(#clip990)" style="stroke:#000000; stroke-linecap:round; stroke-linejoin:round; stroke-width:4; stroke-opacity:1; fill:none" points="219.033,623.18 2352.76,623.18 "/>
<polyline clip-path="url(#clip990)" style="stroke:#000000; stroke-linecap:round; stroke-linejoin:round; stroke-width:4; stroke-opacity:1; fill:none" points="279.421,623.18 279.421,604.282 "/>
<polyline clip-path="url(#clip990)" style="stroke:#000000; stroke-linecap:round; stroke-linejoin:round; stroke-width:4; stroke-opacity:1; fill:none" points="664.943,623.18 664.943,604.282 "/>
<polyline clip-path="url(#clip990)" style="stroke:#000000; stroke-linecap:round; stroke-linejoin:round; stroke-width:4; stroke-opacity:1; fill:none" points="1050.46,623.18 1050.46,604.282 "/>
<polyline clip-path="url(#clip990)" style="stroke:#000000; stroke-linecap:round; stroke-linejoin:round; stroke-width:4; stroke-opacity:1; fill:none" points="1435.99,623.18 1435.99,604.282 "/>
<polyline clip-path="url(#clip990)" style="stroke:#000000; stroke-linecap:round; stroke-linejoin:round; stroke-width:4; stroke-opacity:1; fill:none" points="1821.51,623.18 1821.51,604.282 "/>
<polyline clip-path="url(#clip990)" style="stroke:#000000; stroke-linecap:round; stroke-linejoin:round; stroke-width:4; stroke-opacity:1; fill:none" points="2207.03,623.18 2207.03,604.282 "/>
<path clip-path="url(#clip990)" d="M256.806 654.099 Q253.195 654.099 251.366 657.663 Q249.56 661.205 249.56 668.335 Q249.56 675.441 251.366 679.006 Q253.195 682.547 256.806 682.547 Q260.44 682.547 262.245 679.006 Q264.074 675.441 264.074 668.335 Q264.074 661.205 262.245 657.663 Q260.44 654.099 256.806 654.099 M256.806 650.395 Q262.616 650.395 265.671 655.001 Q268.75 659.585 268.75 668.335 Q268.75 677.061 265.671 681.668 Q262.616 686.251 256.806 686.251 Q250.996 686.251 247.917 681.668 Q244.861 677.061 244.861 668.335 Q244.861 659.585 247.917 655.001 Q250.996 650.395 256.806 650.395 Z" fill="#000000" fill-rule="nonzero" fill-opacity="1" /><path clip-path="url(#clip990)" d="M276.968 679.7 L281.852 679.7 L281.852 685.58 L276.968 685.58 L276.968 679.7 Z" fill="#000000" fill-rule="nonzero" fill-opacity="1" /><path clip-path="url(#clip990)" d="M302.037 654.099 Q298.426 654.099 296.597 657.663 Q294.792 661.205 294.792 668.335 Q294.792 675.441 296.597 679.006 Q298.426 682.547 302.037 682.547 Q305.671 682.547 307.477 679.006 Q309.305 675.441 309.305 668.335 Q309.305 661.205 307.477 657.663 Q305.671 654.099 302.037 654.099 M302.037 650.395 Q307.847 650.395 310.903 655.001 Q313.981 659.585 313.981 668.335 Q313.981 677.061 310.903 681.668 Q307.847 686.251 302.037 686.251 Q296.227 686.251 293.148 681.668 Q290.093 677.061 290.093 668.335 Q290.093 659.585 293.148 655.001 Q296.227 650.395 302.037 650.395 Z" fill="#000000" fill-rule="nonzero" fill-opacity="1" /><path clip-path="url(#clip990)" d="M642.825 654.099 Q639.214 654.099 637.385 657.663 Q635.58 661.205 635.58 668.335 Q635.58 675.441 637.385 679.006 Q639.214 682.547 642.825 682.547 Q646.459 682.547 648.265 679.006 Q650.094 675.441 650.094 668.335 Q650.094 661.205 648.265 657.663 Q646.459 654.099 642.825 654.099 M642.825 650.395 Q648.635 650.395 651.691 655.001 Q654.77 659.585 654.77 668.335 Q654.77 677.061 651.691 681.668 Q648.635 686.251 642.825 686.251 Q637.015 686.251 633.936 681.668 Q630.881 677.061 630.881 668.335 Q630.881 659.585 633.936 655.001 Q637.015 650.395 642.825 650.395 Z" fill="#000000" fill-rule="nonzero" fill-opacity="1" /><path clip-path="url(#clip990)" d="M662.987 679.7 L667.871 679.7 L667.871 685.58 L662.987 685.58 L662.987 679.7 Z" fill="#000000" fill-rule="nonzero" fill-opacity="1" /><path clip-path="url(#clip990)" d="M678.103 651.02 L696.459 651.02 L696.459 654.955 L682.385 654.955 L682.385 663.427 Q683.404 663.08 684.422 662.918 Q685.441 662.733 686.459 662.733 Q692.246 662.733 695.626 665.904 Q699.005 669.075 699.005 674.492 Q699.005 680.071 695.533 683.172 Q692.061 686.251 685.742 686.251 Q683.566 686.251 681.297 685.881 Q679.052 685.51 676.644 684.77 L676.644 680.071 Q678.728 681.205 680.95 681.76 Q683.172 682.316 685.649 682.316 Q689.654 682.316 691.992 680.21 Q694.33 678.103 694.33 674.492 Q694.33 670.881 691.992 668.774 Q689.654 666.668 685.649 666.668 Q683.774 666.668 681.899 667.085 Q680.047 667.501 678.103 668.381 L678.103 651.02 Z" fill="#000000" fill-rule="nonzero" fill-opacity="1" /><path clip-path="url(#clip990)" d="M1017.62 681.645 L1025.26 681.645 L1025.26 655.279 L1016.95 656.946 L1016.95 652.687 L1025.21 651.02 L1029.89 651.02 L1029.89 681.645 L1037.53 681.645 L1037.53 685.58 L1017.62 685.58 L1017.62 681.645 Z" fill="#000000" fill-rule="nonzero" fill-opacity="1" /><path clip-path="url(#clip990)" d="M1046.97 679.7 L1051.85 679.7 L1051.85 685.58 L1046.97 685.58 L1046.97 679.7 Z" fill="#000000" fill-rule="nonzero" fill-opacity="1" /><path clip-path="url(#clip990)" d="M1072.04 654.099 Q1068.43 654.099 1066.6 657.663 Q1064.79 661.205 1064.79 668.335 Q1064.79 675.441 1066.6 679.006 Q1068.43 682.547 1072.04 682.547 Q1075.67 682.547 1077.48 679.006 Q1079.31 675.441 1079.31 668.335 Q1079.31 661.205 1077.48 657.663 Q1075.67 654.099 1072.04 654.099 M1072.04 650.395 Q1077.85 650.395 1080.9 655.001 Q1083.98 659.585 1083.98 668.335 Q1083.98 677.061 1080.9 681.668 Q1077.85 686.251 1072.04 686.251 Q1066.23 686.251 1063.15 681.668 Q1060.09 677.061 1060.09 668.335 Q1060.09 659.585 1063.15 655.001 Q1066.23 650.395 1072.04 650.395 Z" fill="#000000" fill-rule="nonzero" fill-opacity="1" /><path clip-path="url(#clip990)" d="M1403.64 681.645 L1411.28 681.645 L1411.28 655.279 L1402.97 656.946 L1402.97 652.687 L1411.23 651.02 L1415.91 651.02 L1415.91 681.645 L1423.54 681.645 L1423.54 685.58 L1403.64 685.58 L1403.64 681.645 Z" fill="#000000" fill-rule="nonzero" fill-opacity="1" /><path clip-path="url(#clip990)" d="M1432.99 679.7 L1437.87 679.7 L1437.87 685.58 L1432.99 685.58 L1432.99 679.7 Z" fill="#000000" fill-rule="nonzero" fill-opacity="1" /><path clip-path="url(#clip990)" d="M1448.1 651.02 L1466.46 651.02 L1466.46 654.955 L1452.39 654.955 L1452.39 663.427 Q1453.41 663.08 1454.42 662.918 Q1455.44 662.733 1456.46 662.733 Q1462.25 662.733 1465.63 665.904 Q1469.01 669.075 1469.01 674.492 Q1469.01 680.071 1465.54 683.172 Q1462.06 686.251 1455.74 686.251 Q1453.57 686.251 1451.3 685.881 Q1449.05 685.51 1446.65 684.77 L1446.65 680.071 Q1448.73 681.205 1450.95 681.76 Q1453.17 682.316 1455.65 682.316 Q1459.66 682.316 1461.99 680.21 Q1464.33 678.103 1464.33 674.492 Q1464.33 670.881 1461.99 668.774 Q1459.66 666.668 1455.65 666.668 Q1453.78 666.668 1451.9 667.085 Q1450.05 667.501 1448.1 668.381 L1448.1 651.02 Z" fill="#000000" fill-rule="nonzero" fill-opacity="1" /><path clip-path="url(#clip990)" d="M1792.75 681.645 L1809.07 681.645 L1809.07 685.58 L1787.12 685.58 L1787.12 681.645 Q1789.78 678.89 1794.37 674.26 Q1798.97 669.608 1800.15 668.265 Q1802.4 665.742 1803.28 664.006 Q1804.18 662.247 1804.18 660.557 Q1804.18 657.802 1802.24 656.066 Q1800.32 654.33 1797.21 654.33 Q1795.02 654.33 1792.56 655.094 Q1790.13 655.858 1787.35 657.409 L1787.35 652.687 Q1790.18 651.552 1792.63 650.974 Q1795.08 650.395 1797.12 650.395 Q1802.49 650.395 1805.69 653.08 Q1808.88 655.765 1808.88 660.256 Q1808.88 662.386 1808.07 664.307 Q1807.28 666.205 1805.18 668.798 Q1804.6 669.469 1801.5 672.686 Q1798.4 675.881 1792.75 681.645 Z" fill="#000000" fill-rule="nonzero" fill-opacity="1" /><path clip-path="url(#clip990)" d="M1818.88 679.7 L1823.77 679.7 L1823.77 685.58 L1818.88 685.58 L1818.88 679.7 Z" fill="#000000" fill-rule="nonzero" fill-opacity="1" /><path clip-path="url(#clip990)" d="M1843.95 654.099 Q1840.34 654.099 1838.51 657.663 Q1836.71 661.205 1836.71 668.335 Q1836.71 675.441 1838.51 679.006 Q1840.34 682.547 1843.95 682.547 Q1847.58 682.547 1849.39 679.006 Q1851.22 675.441 1851.22 668.335 Q1851.22 661.205 1849.39 657.663 Q1847.58 654.099 1843.95 654.099 M1843.95 650.395 Q1849.76 650.395 1852.82 655.001 Q1855.89 659.585 1855.89 668.335 Q1855.89 677.061 1852.82 681.668 Q1849.76 686.251 1843.95 686.251 Q1838.14 686.251 1835.06 681.668 Q1832.01 677.061 1832.01 668.335 Q1832.01 659.585 1835.06 655.001 Q1838.14 650.395 1843.95 650.395 Z" fill="#000000" fill-rule="nonzero" fill-opacity="1" /><path clip-path="url(#clip990)" d="M2178.77 681.645 L2195.09 681.645 L2195.09 685.58 L2173.14 685.58 L2173.14 681.645 Q2175.8 678.89 2180.39 674.26 Q2184.99 669.608 2186.17 668.265 Q2188.42 665.742 2189.3 664.006 Q2190.2 662.247 2190.2 660.557 Q2190.2 657.802 2188.26 656.066 Q2186.34 654.33 2183.23 654.33 Q2181.03 654.33 2178.58 655.094 Q2176.15 655.858 2173.37 657.409 L2173.37 652.687 Q2176.2 651.552 2178.65 650.974 Q2181.1 650.395 2183.14 650.395 Q2188.51 650.395 2191.71 653.08 Q2194.9 655.765 2194.9 660.256 Q2194.9 662.386 2194.09 664.307 Q2193.3 666.205 2191.2 668.798 Q2190.62 669.469 2187.52 672.686 Q2184.41 675.881 2178.77 681.645 Z" fill="#000000" fill-rule="nonzero" fill-opacity="1" /><path clip-path="url(#clip990)" d="M2204.9 679.7 L2209.78 679.7 L2209.78 685.58 L2204.9 685.58 L2204.9 679.7 Z" fill="#000000" fill-rule="nonzero" fill-opacity="1" /><path clip-path="url(#clip990)" d="M2220.02 651.02 L2238.37 651.02 L2238.37 654.955 L2224.3 654.955 L2224.3 663.427 Q2225.32 663.08 2226.34 662.918 Q2227.35 662.733 2228.37 662.733 Q2234.16 662.733 2237.54 665.904 Q2240.92 669.075 2240.92 674.492 Q2240.92 680.071 2237.45 683.172 Q2233.97 686.251 2227.66 686.251 Q2225.48 686.251 2223.21 685.881 Q2220.97 685.51 2218.56 684.77 L2218.56 680.071 Q2220.64 681.205 2222.86 681.76 Q2225.09 682.316 2227.56 682.316 Q2231.57 682.316 2233.91 680.21 Q2236.24 678.103 2236.24 674.492 Q2236.24 670.881 2233.91 668.774 Q2231.57 666.668 2227.56 666.668 Q2225.69 666.668 2223.81 667.085 Q2221.96 667.501 2220.02 668.381 L2220.02 651.02 Z" fill="#000000" fill-rule="nonzero" fill-opacity="1" /><path clip-path="url(#clip990)" d="M1294.37 731.913 Q1294.37 732.815 1293.95 733.04 Q1293.53 733.233 1292.37 733.233 L1286.19 733.233 L1281.29 752.686 Q1280.9 754.393 1280.9 755.842 Q1280.9 757.452 1281.39 758.161 Q1281.9 758.869 1282.96 758.869 Q1285.06 758.869 1287.31 756.969 Q1289.6 755.069 1291.53 750.431 Q1291.79 749.819 1291.92 749.691 Q1292.08 749.53 1292.5 749.53 Q1293.3 749.53 1293.3 750.174 Q1293.3 750.399 1292.85 751.43 Q1292.43 752.46 1291.5 753.974 Q1290.6 755.488 1289.41 756.905 Q1288.25 758.322 1286.47 759.352 Q1284.7 760.351 1282.8 760.351 Q1280.13 760.351 1278.42 758.644 Q1276.75 756.937 1276.75 754.264 Q1276.75 753.394 1277.43 750.625 Q1278.1 747.823 1281.77 733.233 L1275.94 733.233 Q1275.14 733.233 1274.82 733.201 Q1274.53 733.169 1274.3 733.008 Q1274.11 732.815 1274.11 732.428 Q1274.11 731.816 1274.37 731.559 Q1274.62 731.269 1274.95 731.237 Q1275.3 731.172 1276.1 731.172 L1282.29 731.172 L1284.86 720.705 Q1285.12 719.675 1285.77 719.095 Q1286.44 718.483 1286.83 718.419 Q1287.22 718.322 1287.51 718.322 Q1288.38 718.322 1288.89 718.805 Q1289.41 719.256 1289.41 720.093 Q1289.41 720.544 1286.7 731.172 L1292.5 731.172 Q1293.24 731.172 1293.53 731.204 Q1293.85 731.237 1294.11 731.398 Q1294.37 731.559 1294.37 731.913 Z" fill="#000000" fill-rule="nonzero" fill-opacity="1" /><polyline clip-path="url(#clip992)" style="stroke:#000000; stroke-linecap:round; stroke-linejoin:round; stroke-width:2; stroke-opacity:0.1; fill:none" points="219.033,623.18 2352.76,623.18 "/>
<polyline clip-path="url(#clip992)" style="stroke:#000000; stroke-linecap:round; stroke-linejoin:round; stroke-width:2; stroke-opacity:0.1; fill:none" points="219.033,507.993 2352.76,507.993 "/>
<polyline clip-path="url(#clip992)" style="stroke:#000000; stroke-linecap:round; stroke-linejoin:round; stroke-width:2; stroke-opacity:0.1; fill:none" points="219.033,392.806 2352.76,392.806 "/>
<polyline clip-path="url(#clip992)" style="stroke:#000000; stroke-linecap:round; stroke-linejoin:round; stroke-width:2; stroke-opacity:0.1; fill:none" points="219.033,277.618 2352.76,277.618 "/>
<polyline clip-path="url(#clip992)" style="stroke:#000000; stroke-linecap:round; stroke-linejoin:round; stroke-width:2; stroke-opacity:0.1; fill:none" points="219.033,162.431 2352.76,162.431 "/>
<polyline clip-path="url(#clip992)" style="stroke:#000000; stroke-linecap:round; stroke-linejoin:round; stroke-width:2; stroke-opacity:0.1; fill:none" points="219.033,47.2441 2352.76,47.2441 "/>
<polyline clip-path="url(#clip990)" style="stroke:#000000; stroke-linecap:round; stroke-linejoin:round; stroke-width:4; stroke-opacity:1; fill:none" points="219.033,623.18 219.033,47.2441 "/>
<polyline clip-path="url(#clip990)" style="stroke:#000000; stroke-linecap:round; stroke-linejoin:round; stroke-width:4; stroke-opacity:1; fill:none" points="219.033,623.18 237.931,623.18 "/>
<polyline clip-path="url(#clip990)" style="stroke:#000000; stroke-linecap:round; stroke-linejoin:round; stroke-width:4; stroke-opacity:1; fill:none" points="219.033,507.993 237.931,507.993 "/>
<polyline clip-path="url(#clip990)" style="stroke:#000000; stroke-linecap:round; stroke-linejoin:round; stroke-width:4; stroke-opacity:1; fill:none" points="219.033,392.806 237.931,392.806 "/>
<polyline clip-path="url(#clip990)" style="stroke:#000000; stroke-linecap:round; stroke-linejoin:round; stroke-width:4; stroke-opacity:1; fill:none" points="219.033,277.618 237.931,277.618 "/>
<polyline clip-path="url(#clip990)" style="stroke:#000000; stroke-linecap:round; stroke-linejoin:round; stroke-width:4; stroke-opacity:1; fill:none" points="219.033,162.431 237.931,162.431 "/>
<polyline clip-path="url(#clip990)" style="stroke:#000000; stroke-linecap:round; stroke-linejoin:round; stroke-width:4; stroke-opacity:1; fill:none" points="219.033,47.2441 237.931,47.2441 "/>
<path clip-path="url(#clip990)" d="M171.089 608.979 Q167.477 608.979 165.649 612.543 Q163.843 616.085 163.843 623.215 Q163.843 630.321 165.649 633.886 Q167.477 637.427 171.089 637.427 Q174.723 637.427 176.528 633.886 Q178.357 630.321 178.357 623.215 Q178.357 616.085 176.528 612.543 Q174.723 608.979 171.089 608.979 M171.089 605.275 Q176.899 605.275 179.954 609.881 Q183.033 614.465 183.033 623.215 Q183.033 631.941 179.954 636.548 Q176.899 641.131 171.089 641.131 Q165.278 641.131 162.2 636.548 Q159.144 631.941 159.144 623.215 Q159.144 614.465 162.2 609.881 Q165.278 605.275 171.089 605.275 Z" fill="#000000" fill-rule="nonzero" fill-opacity="1" /><path clip-path="url(#clip990)" d="M163.126 521.338 L170.764 521.338 L170.764 494.972 L162.454 496.639 L162.454 492.379 L170.718 490.713 L175.394 490.713 L175.394 521.338 L183.033 521.338 L183.033 525.273 L163.126 525.273 L163.126 521.338 Z" fill="#000000" fill-rule="nonzero" fill-opacity="1" /><path clip-path="url(#clip990)" d="M166.714 406.15 L183.033 406.15 L183.033 410.086 L161.089 410.086 L161.089 406.15 Q163.751 403.396 168.334 398.766 Q172.94 394.113 174.121 392.771 Q176.366 390.248 177.246 388.512 Q178.149 386.752 178.149 385.063 Q178.149 382.308 176.204 380.572 Q174.283 378.836 171.181 378.836 Q168.982 378.836 166.528 379.6 Q164.098 380.363 161.32 381.914 L161.32 377.192 Q164.144 376.058 166.598 375.479 Q169.052 374.901 171.089 374.901 Q176.459 374.901 179.653 377.586 Q182.848 380.271 182.848 384.762 Q182.848 386.891 182.038 388.813 Q181.251 390.711 179.144 393.303 Q178.565 393.975 175.464 397.192 Q172.362 400.387 166.714 406.15 Z" fill="#000000" fill-rule="nonzero" fill-opacity="1" /><path clip-path="url(#clip990)" d="M175.903 276.264 Q179.26 276.982 181.135 279.25 Q183.033 281.519 183.033 284.852 Q183.033 289.968 179.514 292.769 Q175.996 295.57 169.514 295.57 Q167.339 295.57 165.024 295.13 Q162.732 294.713 160.278 293.857 L160.278 289.343 Q162.223 290.477 164.538 291.056 Q166.852 291.635 169.376 291.635 Q173.774 291.635 176.065 289.898 Q178.38 288.162 178.38 284.852 Q178.38 281.797 176.227 280.084 Q174.098 278.348 170.278 278.348 L166.251 278.348 L166.251 274.505 L170.464 274.505 Q173.913 274.505 175.741 273.139 Q177.57 271.75 177.57 269.158 Q177.57 266.496 175.672 265.084 Q173.797 263.649 170.278 263.649 Q168.357 263.649 166.158 264.065 Q163.959 264.482 161.32 265.362 L161.32 261.195 Q163.982 260.454 166.297 260.084 Q168.635 259.713 170.695 259.713 Q176.019 259.713 179.121 262.144 Q182.223 264.551 182.223 268.672 Q182.223 271.542 180.579 273.533 Q178.936 275.5 175.903 276.264 Z" fill="#000000" fill-rule="nonzero" fill-opacity="1" /><path clip-path="url(#clip990)" d="M173.45 149.225 L161.644 167.674 L173.45 167.674 L173.45 149.225 M172.223 145.151 L178.102 145.151 L178.102 167.674 L183.033 167.674 L183.033 171.563 L178.102 171.563 L178.102 179.711 L173.45 179.711 L173.45 171.563 L157.848 171.563 L157.848 167.049 L172.223 145.151 Z" fill="#000000" fill-rule="nonzero" fill-opacity="1" /><path clip-path="url(#clip990)" d="M162.13 29.9641 L180.487 29.9641 L180.487 33.8993 L166.413 33.8993 L166.413 42.3714 Q167.431 42.0242 168.45 41.8622 Q169.468 41.677 170.487 41.677 Q176.274 41.677 179.653 44.8483 Q183.033 48.0196 183.033 53.4362 Q183.033 59.0149 179.561 62.1167 Q176.089 65.1954 169.769 65.1954 Q167.593 65.1954 165.325 64.825 Q163.079 64.4547 160.672 63.7139 L160.672 59.0149 Q162.755 60.1491 164.977 60.7047 Q167.2 61.2602 169.677 61.2602 Q173.681 61.2602 176.019 59.1538 Q178.357 57.0473 178.357 53.4362 Q178.357 49.8251 176.019 47.7186 Q173.681 45.6122 169.677 45.6122 Q167.802 45.6122 165.927 46.0288 Q164.075 46.4455 162.13 47.3251 L162.13 29.9641 Z" fill="#000000" fill-rule="nonzero" fill-opacity="1" /><path clip-path="url(#clip990)" d="M73.2042 405.751 Q75.0077 405.751 76.0383 406.878 Q77.0367 408.005 77.0367 409.294 Q77.0367 410.517 76.3282 411.162 Q75.6197 411.806 74.7179 411.806 Q73.4941 411.806 72.4313 410.904 Q71.3685 410.002 71.143 408.65 Q70.3057 409.97 70.3057 411.935 Q70.3057 413.223 70.982 414.35 Q71.6583 415.445 72.5279 416.121 Q73.3975 416.765 74.6535 417.345 Q75.8773 417.893 76.618 418.118 Q77.3266 418.311 78.0995 418.472 L87.1171 420.727 Q91.4005 421.822 92.9142 421.822 Q94.7821 421.822 96.0382 420.92 Q97.262 420.018 97.262 418.215 Q97.262 417.506 97.0688 416.701 Q96.8433 415.896 96.2636 414.865 Q95.6517 413.802 94.7499 412.869 Q93.816 411.902 92.2379 410.968 Q90.6598 410.034 88.6308 409.422 Q87.9223 409.229 87.9223 408.585 Q87.9223 407.78 88.5664 407.78 Q89.1139 407.78 90.2733 408.231 Q91.4005 408.65 92.882 409.584 Q94.3313 410.485 95.6517 411.677 Q96.9399 412.869 97.8417 414.64 Q98.7435 416.411 98.7435 418.344 Q98.7435 421.113 97.262 422.949 Q95.7805 424.785 93.7194 425.461 Q94.0092 425.622 94.3957 425.847 Q94.7821 426.073 95.6517 426.749 Q96.4891 427.393 97.1332 428.134 Q97.7451 428.875 98.2282 430.034 Q98.7435 431.161 98.7435 432.385 Q98.7435 433.931 98.2926 435.316 Q97.8417 436.669 96.8111 437.635 Q95.7805 438.601 94.3635 438.601 Q92.7854 438.601 91.6904 437.538 Q90.5632 436.443 90.5632 434.962 Q90.5632 434.028 91.1107 433.287 Q91.6582 432.514 92.8498 432.514 Q94.1702 432.514 95.1686 433.416 Q96.167 434.318 96.4246 435.606 Q97.262 434.285 97.262 432.321 Q97.262 430.195 95.3941 428.521 Q93.5261 426.846 90.4021 426.041 Q82.8982 424.044 79.5488 423.271 Q76.1672 422.498 74.7179 422.498 Q73.3652 422.498 72.4313 422.852 Q71.4973 423.207 71.0786 423.819 Q70.6277 424.398 70.4667 424.946 Q70.3057 425.461 70.3057 426.041 Q70.3057 427.007 70.6922 428.102 Q71.0786 429.165 71.9804 430.453 Q72.85 431.709 74.6535 432.901 Q76.457 434.092 78.9369 434.897 Q79.6776 435.058 79.6776 435.767 Q79.6454 436.54 79.0013 436.54 Q78.4538 436.54 77.3266 436.121 Q76.1672 435.67 74.7179 434.769 Q73.2686 433.835 71.9804 432.643 Q70.66 431.419 69.7582 429.648 Q68.8564 427.844 68.8564 425.912 Q68.8564 425.042 69.0497 424.205 Q69.2107 423.335 69.6938 422.305 Q70.1769 421.242 71.2397 420.308 Q72.3025 419.374 73.8483 418.794 Q73.1076 418.408 72.3991 417.893 Q71.6905 417.345 70.821 416.508 Q69.9192 415.638 69.4039 414.447 Q68.8564 413.223 68.8564 411.87 Q68.8564 410.55 69.2107 409.261 Q69.5327 407.973 70.5955 406.878 Q71.6261 405.751 73.2042 405.751 Z" fill="#000000" fill-rule="nonzero" fill-opacity="1" /><path clip-path="url(#clip990)" d="M81.5133 397.024 Q70.3701 397.024 61.3847 392.869 Q57.6166 391.098 54.4604 388.618 Q51.3042 386.138 49.9194 384.496 Q48.5345 382.853 48.5345 382.402 Q48.5345 381.758 49.1786 381.726 Q49.5007 381.726 50.3059 382.596 Q61.127 393.224 81.5133 393.191 Q101.964 393.191 112.367 382.853 Q113.494 381.726 113.848 381.726 Q114.492 381.726 114.492 382.402 Q114.492 382.853 113.172 384.431 Q111.851 386.009 108.824 388.457 Q105.797 390.905 102.093 392.676 Q93.1074 397.024 81.5133 397.024 Z" fill="#000000" fill-rule="nonzero" fill-opacity="1" /><path clip-path="url(#clip990)" d="M70.3057 356.455 Q71.2075 356.455 71.4329 356.874 Q71.6261 357.292 71.6261 358.452 L71.6261 364.635 L91.0785 369.531 Q92.7854 369.917 94.2346 369.917 Q95.8449 369.917 96.5535 369.434 Q97.262 368.919 97.262 367.856 Q97.262 365.762 95.3619 363.508 Q93.4617 361.221 88.8241 359.289 Q88.2121 359.031 88.0833 358.903 Q87.9223 358.742 87.9223 358.323 Q87.9223 357.518 88.5664 357.518 Q88.7919 357.518 89.8224 357.969 Q90.853 358.387 92.3667 359.321 Q93.8804 360.223 95.2974 361.415 Q96.7145 362.574 97.7451 364.345 Q98.7435 366.117 98.7435 368.017 Q98.7435 370.69 97.0366 372.397 Q95.3296 374.072 92.6566 374.072 Q91.787 374.072 89.0173 373.395 Q86.2154 372.719 71.6261 369.047 L71.6261 374.877 Q71.6261 375.682 71.5939 376.004 Q71.5617 376.294 71.4007 376.519 Q71.2075 376.712 70.821 376.712 Q70.2091 376.712 69.9514 376.455 Q69.6616 376.197 69.6294 375.875 Q69.565 375.521 69.565 374.716 L69.565 368.532 L59.0981 365.956 Q58.0675 365.698 57.4878 365.054 Q56.8758 364.378 56.8114 363.991 Q56.7148 363.605 56.7148 363.315 Q56.7148 362.445 57.1979 361.93 Q57.6488 361.415 58.4861 361.415 Q58.937 361.415 69.565 364.12 L69.565 358.323 Q69.565 357.582 69.5972 357.292 Q69.6294 356.97 69.7904 356.713 Q69.9514 356.455 70.3057 356.455 Z" fill="#000000" fill-rule="nonzero" fill-opacity="1" /><path clip-path="url(#clip990)" d="M96.9399 352.206 Q95.8771 353.139 94.4923 353.139 Q93.1074 353.139 92.0769 352.238 Q91.0141 351.304 91.0141 349.629 Q91.0141 347.664 92.9142 346.537 Q94.7821 345.41 97.9383 345.41 Q101.352 345.41 104.508 346.795 Q107.697 348.18 109.21 349.532 Q110.724 350.885 110.724 351.433 Q110.724 352.077 110.016 352.077 Q109.758 352.077 109.275 351.626 Q104.186 346.892 97.9383 346.859 Q96.9399 346.859 96.9399 346.988 L97.0688 347.149 Q98.0027 348.276 98.0027 349.629 Q98.0027 351.272 96.9399 352.206 Z" fill="#000000" fill-rule="nonzero" fill-opacity="1" /><path clip-path="url(#clip990)" d="M79.3877 290.134 Q84.0898 290.134 88.6308 292.517 Q93.1719 294.868 95.9738 298.572 Q98.7435 302.276 98.7435 306.044 Q98.7435 308.298 97.5196 309.812 Q96.2636 311.293 94.4923 312.099 Q96.6823 312.71 101.932 314.031 Q107.181 315.351 107.697 315.351 Q107.987 315.351 108.115 315.287 Q108.244 315.222 108.405 314.933 Q108.598 314.643 108.663 313.934 Q108.759 313.226 108.759 312.034 Q108.759 311.422 108.759 311.197 Q108.792 310.939 108.953 310.714 Q109.114 310.456 109.468 310.456 Q110.788 310.456 110.788 311.648 Q110.788 312.71 110.692 314.9 Q110.595 317.09 110.595 318.185 Q110.595 319.119 110.692 320.987 Q110.788 322.855 110.788 323.725 Q110.788 324.594 110.016 324.594 Q109.565 324.594 109.275 324.466 Q109.017 324.369 108.888 324.111 Q108.792 323.854 108.759 323.628 Q108.759 323.435 108.759 323.049 Q108.759 321.567 108.502 320.923 Q108.276 320.279 107.793 320.053 Q107.342 319.796 106.054 319.506 L76.6825 312.099 Q74.7179 311.648 73.333 311.648 Q71.5939 311.648 70.9498 312.195 Q70.3057 312.743 70.3057 313.709 Q70.3057 315.384 72.3025 316.479 Q74.2992 317.574 78.1639 318.507 Q79.2267 318.797 79.4522 318.991 Q79.6776 319.152 79.6776 319.635 Q79.6454 320.44 79.0013 320.44 Q78.8402 320.44 77.8097 320.182 Q76.7469 319.925 75.201 319.441 Q73.6229 318.926 72.6245 318.379 Q71.9482 318.057 71.4973 317.767 Q71.0464 317.477 70.3379 316.897 Q69.6294 316.285 69.2429 315.416 Q68.8564 314.546 68.8564 313.483 Q68.8564 311.422 70.0802 309.715 Q71.3041 308.008 73.7839 307.558 Q71.6261 305.722 70.2413 303.467 Q68.8564 301.213 68.8564 298.926 Q68.8564 295.126 71.8194 292.646 Q74.7501 290.134 79.3877 290.134 M76.4892 294.901 Q73.5585 294.901 71.9482 296.028 Q70.3057 297.123 70.3057 299.12 Q70.3057 301.599 72.8177 304.466 Q75.201 307.3 77.4232 307.88 L90.3377 311.132 L91.4005 311.326 Q91.5938 311.326 92.1735 311.229 Q92.721 311.1 93.6227 310.746 Q94.5245 310.359 95.3296 309.844 Q96.1026 309.297 96.6823 308.33 Q97.262 307.332 97.262 306.108 Q97.262 304.144 95.5229 302.018 Q93.7838 299.86 90.4988 298.25 Q88.3732 297.252 83.7999 296.092 Q79.1945 294.901 76.4892 294.901 Z" fill="#000000" fill-rule="nonzero" fill-opacity="1" /><path clip-path="url(#clip990)" d="M114.169 283.429 Q107.383 283.429 103.686 281.716 Q98.1854 279.326 98.1854 273.69 Q98.1854 272.496 98.5235 271.256 Q98.8392 269.993 100.079 268.415 Q101.319 266.814 103.348 265.845 Q107.271 263.996 114.169 263.996 Q120.91 263.996 124.585 265.71 Q129.95 268.212 129.95 273.735 Q129.95 275.809 128.89 277.929 Q127.831 280.025 125.283 281.355 Q121.473 283.429 114.169 283.429 M113.606 279.597 Q120.572 279.597 123.345 279.101 Q126.343 278.537 127.651 277.004 Q128.936 275.449 128.936 273.735 Q128.936 271.887 127.56 270.354 Q126.163 268.798 123.164 268.325 Q120.211 267.806 113.606 267.829 Q107.18 267.829 104.61 268.28 Q101.612 268.888 100.417 270.512 Q99.1999 272.112 99.1999 273.735 Q99.1999 274.344 99.3802 274.998 Q99.5606 275.629 100.079 276.553 Q100.598 277.478 101.883 278.199 Q103.168 278.898 105.106 279.236 Q107.609 279.597 113.606 279.597 Z" fill="#000000" fill-rule="nonzero" fill-opacity="1" /><path clip-path="url(#clip990)" d="M113.848 257.15 Q113.526 257.15 112.721 256.313 Q101.9 245.685 81.5133 245.685 Q61.0626 245.685 50.7245 255.894 Q49.5329 257.15 49.1786 257.15 Q48.5345 257.15 48.5345 256.506 Q48.5345 256.055 49.855 254.477 Q51.1754 252.867 54.2028 250.452 Q57.2301 248.004 60.9338 246.2 Q69.9192 241.853 81.5133 241.853 Q92.6566 241.853 101.642 246.007 Q105.41 247.778 108.566 250.258 Q111.722 252.738 113.107 254.381 Q114.492 256.023 114.492 256.506 Q114.492 257.15 113.848 257.15 Z" fill="#000000" fill-rule="nonzero" fill-opacity="1" /><polyline clip-path="url(#clip992)" style="stroke:#009af9; stroke-linecap:round; stroke-linejoin:round; stroke-width:4; stroke-opacity:1; fill:none" points="279.421,507.993 294.842,520.398 310.263,531.421 325.684,541.21 341.105,549.897 356.526,557.598 371.947,564.417 387.367,570.446 402.788,575.765 418.209,580.447 433.63,584.554 449.051,588.142 464.472,591.258 479.893,593.945 495.314,596.239 510.734,598.17 526.155,599.765 541.576,601.046 556.997,602.028 572.418,602.726 587.839,603.149 603.26,603.303 618.68,603.189 634.101,602.807 649.522,602.15 664.943,601.211 680.364,599.976 695.785,598.429 711.206,596.549 726.627,594.311 742.047,591.685 757.468,588.635 772.889,585.121 788.31,581.095 803.731,576.502 819.152,571.282 834.573,565.364 849.994,558.669 865.414,551.106 880.835,542.573 896.256,532.957 911.677,522.127 927.098,509.938 942.519,496.225 957.94,480.806 973.361,463.472 988.781,443.989 1004.2,422.097 1019.62,397.5 1035.04,369.869 1050.46,338.83 1065.89,303.967 1081.31,264.811 1096.73,220.835 1112.15,171.448 1127.57,115.986 1142.99,53.7022 1158.41,-16.2405 1173.83,-94.7829 1189.25,-182.981 1204.67,-282.022 1220.09,-393.236 1235.52,-518.121 1250.94,-658.355 1266.36,-815.825 1281.78,-992.648 1297.2,-1191.2 1312.62,-1414.16 1328.04,-1664.52 1343.46,-1945.64 1358.88,-2261.31 1374.3,-2615.78 1389.72,-3013.81 1405.14,-3460.75 1420.57,-3962.62 1435.99,-4526.16 1451.41,-5158.96 1466.83,-5869.52 1482.25,-6667.4 1497.67,-7563.33 1513.09,-8569.37 1528.51,-9699.03 1543.93,-10967.5 1559.35,-12391.9 1574.77,-13991.3 1590.2,-15787.3 1605.62,-17804.1 1621.04,-20068.8 1636.46,-22611.7 1651.88,-25467.2 1667.3,-28674 1682.72,-32274.9 1698.14,-36317.6 1713.56,-40857.7 1728.98,-45953.6 1744.4,-51673.2 1759.82,-58088.5 1775.25,-65292.1 1790.67,-73373.5 1806.09,-82424.6 1821.51,-92584.1 "/>
<polyline clip-path="url(#clip992)" style="stroke:#e26f46; stroke-linecap:round; stroke-linejoin:round; stroke-width:4; stroke-opacity:1; fill:none" points="279.421,507.993 294.842,510.44 310.263,512.789 325.684,515.043 341.105,517.202 356.526,519.269 371.947,521.246 387.367,523.133 402.788,524.934 418.209,526.65 433.63,528.281 449.051,529.83 464.472,531.298 479.893,532.685 495.314,533.994 510.734,535.225 526.155,536.38 541.576,537.46 556.997,538.464 572.418,539.395 587.839,540.253 603.26,541.039 618.68,541.754 634.101,542.397 649.522,542.971 664.943,543.474 680.364,543.909 695.785,544.274 711.206,544.57 726.627,544.799 742.047,544.959 757.468,545.051 772.889,545.074 788.31,545.031 803.731,544.919 819.152,544.738 834.573,544.49 849.994,544.173 865.414,543.788 880.835,543.333 896.256,542.809 911.677,542.215 927.098,541.551 942.519,540.815 957.94,540.008 973.361,539.129 988.781,538.176 1004.2,537.149 1019.62,536.048 1035.04,534.871 1050.46,533.617 1065.89,532.285 1081.31,530.874 1096.73,529.382 1112.15,527.809 1127.57,526.153 1142.99,524.413 1158.41,522.587 1173.83,520.673 1189.25,518.67 1204.67,516.576 1220.09,514.389 1235.52,512.108 1250.94,509.73 1266.36,507.253 1281.78,504.675 1297.2,501.995 1312.62,499.209 1328.04,496.315 1343.46,493.31 1358.88,490.193 1374.3,486.96 1389.72,483.608 1405.14,480.135 1420.57,476.538 1435.99,472.813 1451.41,468.957 1466.83,464.967 1482.25,460.839 1497.67,456.57 1513.09,452.156 1528.51,447.593 1543.93,442.878 1559.35,438.006 1574.77,432.972 1590.2,427.773 1605.62,422.404 1621.04,416.86 1636.46,411.137 1651.88,405.23 1667.3,399.132 1682.72,392.84 1698.14,386.347 1713.56,379.649 1728.98,372.738 1744.4,365.61 1759.82,358.257 1775.25,350.674 1790.67,342.854 1806.09,334.79 1821.51,326.475 "/>
<polyline clip-path="url(#clip992)" style="stroke:#3da44d; stroke-linecap:round; stroke-linejoin:round; stroke-width:4; stroke-opacity:1; fill:none" points="279.421,507.993 294.842,509.24 310.263,510.428 325.684,511.557 341.105,512.628 356.526,513.641 371.947,514.596 387.367,515.495 402.788,516.338 418.209,517.124 433.63,517.855 449.051,518.531 464.472,519.153 479.893,519.719 495.314,520.232 510.734,520.691 526.155,521.096 541.576,521.448 556.997,521.747 572.418,521.992 587.839,522.185 603.26,522.325 618.68,522.412 634.101,522.446 649.522,522.428 664.943,522.357 680.364,522.233 695.785,522.057 711.206,521.827 726.627,521.545 742.047,521.209 757.468,520.821 772.889,520.378 788.31,519.882 803.731,519.332 819.152,518.727 834.573,518.068 849.994,517.354 865.414,516.584 880.835,515.759 896.256,514.877 911.677,513.939 927.098,512.944 942.519,511.891 957.94,510.78 973.361,509.61 988.781,508.38 1004.2,507.091 1019.62,505.741 1035.04,504.329 1050.46,502.856 1065.89,501.319 1081.31,499.719 1096.73,498.054 1112.15,496.323 1127.57,494.527 1142.99,492.662 1158.41,490.73 1173.83,488.729 1189.25,486.657 1204.67,484.513 1220.09,482.297 1235.52,480.008 1250.94,477.644 1266.36,475.203 1281.78,472.685 1297.2,470.088 1312.62,467.412 1328.04,464.653 1343.46,461.812 1358.88,458.887 1374.3,455.875 1389.72,452.776 1405.14,449.588 1420.57,446.309 1435.99,442.938 1451.41,439.472 1466.83,435.91 1482.25,432.251 1497.67,428.491 1513.09,424.629 1528.51,420.664 1543.93,416.593 1559.35,412.414 1574.77,408.124 1590.2,403.722 1605.62,399.205 1621.04,394.571 1636.46,389.818 1651.88,384.942 1667.3,379.942 1682.72,374.815 1698.14,369.557 1713.56,364.167 1728.98,358.642 1744.4,352.978 1759.82,347.173 1775.25,341.224 1790.67,335.127 1806.09,328.879 1821.51,322.477 "/>
<polyline clip-path="url(#clip992)" style="stroke:#c271d2; stroke-linecap:round; stroke-linejoin:round; stroke-width:4; stroke-opacity:1; fill:none" points="279.421,507.993 294.842,508.525 310.263,509.009 325.684,509.445 341.105,509.833 356.526,510.172 371.947,510.464 387.367,510.708 402.788,510.905 418.209,511.053 433.63,511.155 449.051,511.209 464.472,511.215 479.893,511.175 495.314,511.086 510.734,510.951 526.155,510.767 541.576,510.536 556.997,510.258 572.418,509.932 587.839,509.557 603.26,509.135 618.68,508.664 634.101,508.145 649.522,507.577 664.943,506.96 680.364,506.294 695.785,505.579 711.206,504.813 726.627,503.998 742.047,503.132 757.468,502.215 772.889,501.248 788.31,500.228 803.731,499.156 819.152,498.032 834.573,496.855 849.994,495.625 865.414,494.34 880.835,493.001 896.256,491.607 911.677,490.157 927.098,488.65 942.519,487.087 957.94,485.466 973.361,483.787 988.781,482.049 1004.2,480.251 1019.62,478.392 1035.04,476.473 1050.46,474.491 1065.89,472.446 1081.31,470.337 1096.73,468.164 1112.15,465.925 1127.57,463.619 1142.99,461.246 1158.41,458.804 1173.83,456.293 1189.25,453.711 1204.67,451.057 1220.09,448.331 1235.52,445.53 1250.94,442.654 1266.36,439.702 1281.78,436.672 1297.2,433.563 1312.62,430.374 1328.04,427.103 1343.46,423.749 1358.88,420.311 1374.3,416.787 1389.72,413.175 1405.14,409.475 1420.57,405.684 1435.99,401.8 1451.41,397.824 1466.83,393.751 1482.25,389.582 1497.67,385.314 1513.09,380.945 1528.51,376.473 1543.93,371.897 1559.35,367.215 1574.77,362.424 1590.2,357.523 1605.62,352.509 1621.04,347.381 1636.46,342.136 1651.88,336.772 1667.3,331.287 1682.72,325.678 1698.14,319.943 1713.56,314.08 1728.98,308.086 1744.4,301.959 1759.82,295.695 1775.25,289.293 1790.67,282.749 1806.09,276.062 1821.51,269.227 "/>
<polyline clip-path="url(#clip992)" style="stroke:#ac8d18; stroke-linecap:round; stroke-linejoin:round; stroke-width:4; stroke-opacity:1; fill:none" points="279.421,507.993 294.842,507.935 310.263,507.831 325.684,507.682 341.105,507.485 356.526,507.243 371.947,506.954 387.367,506.619 402.788,506.237 418.209,505.808 433.63,505.333 449.051,504.81 464.472,504.24 479.893,503.622 495.314,502.957 510.734,502.243 526.155,501.481 541.576,500.67 556.997,499.81 572.418,498.901 587.839,497.942 603.26,496.933 618.68,495.874 634.101,494.763 649.522,493.602 664.943,492.388 680.364,491.122 695.785,489.803 711.206,488.431 726.627,487.005 742.047,485.524 757.468,483.989 772.889,482.397 788.31,480.75 803.731,479.045 819.152,477.283 834.573,475.462 849.994,473.582 865.414,471.643 880.835,469.642 896.256,467.581 911.677,465.457 927.098,463.27 942.519,461.019 957.94,458.703 973.361,456.321 988.781,453.872 1004.2,451.356 1019.62,448.771 1035.04,446.116 1050.46,443.391 1065.89,440.593 1081.31,437.723 1096.73,434.778 1112.15,431.758 1127.57,428.661 1142.99,425.486 1158.41,422.233 1173.83,418.898 1189.25,415.483 1204.67,411.984 1220.09,408.4 1235.52,404.731 1250.94,400.974 1266.36,397.128 1281.78,393.192 1297.2,389.164 1312.62,385.042 1328.04,380.825 1343.46,376.511 1358.88,372.099 1374.3,367.585 1389.72,362.97 1405.14,358.25 1420.57,353.425 1435.99,348.491 1451.41,343.448 1466.83,338.293 1482.25,333.023 1497.67,327.638 1513.09,322.134 1528.51,316.51 1543.93,310.764 1559.35,304.892 1574.77,298.893 1590.2,292.764 1605.62,286.503 1621.04,280.107 1636.46,273.574 1651.88,266.901 1667.3,260.086 1682.72,253.125 1698.14,246.016 1713.56,238.756 1728.98,231.343 1744.4,223.773 1759.82,216.042 1775.25,208.15 1790.67,200.09 1806.09,191.862 1821.51,183.461 "/>
<polyline clip-path="url(#clip992)" style="stroke:#00a9ad; stroke-linecap:round; stroke-linejoin:round; stroke-width:4; stroke-opacity:1; fill:none" points="279.421,507.993 294.842,507.335 310.263,506.627 325.684,505.869 341.105,505.061 356.526,504.201 371.947,503.291 387.367,502.329 402.788,501.315 418.209,500.249 433.63,499.129 449.051,497.957 464.472,496.73 479.893,495.449 495.314,494.113 510.734,492.722 526.155,491.274 541.576,489.77 556.997,488.208 572.418,486.588 587.839,484.91 603.26,483.172 618.68,481.374 634.101,479.514 649.522,477.593 664.943,475.61 680.364,473.562 695.785,471.451 711.206,469.274 726.627,467.031 742.047,464.721 757.468,462.342 772.889,459.895 788.31,457.377 803.731,454.788 819.152,452.126 834.573,449.391 849.994,446.581 865.414,443.695 880.835,440.732 896.256,437.69 911.677,434.568 927.098,431.366 942.519,428.081 957.94,424.711 973.361,421.257 988.781,417.716 1004.2,414.086 1019.62,410.366 1035.04,406.555 1050.46,402.65 1065.89,398.651 1081.31,394.555 1096.73,390.361 1112.15,386.066 1127.57,381.67 1142.99,377.169 1158.41,372.563 1173.83,367.849 1189.25,363.025 1204.67,358.089 1220.09,353.04 1235.52,347.873 1250.94,342.589 1266.36,337.184 1281.78,331.655 1297.2,326.002 1312.62,320.22 1328.04,314.308 1343.46,308.263 1358.88,302.083 1374.3,295.765 1389.72,289.305 1405.14,282.702 1420.57,275.953 1435.99,269.054 1451.41,262.003 1466.83,254.796 1482.25,247.431 1497.67,239.905 1513.09,232.213 1528.51,224.353 1543.93,216.322 1559.35,208.115 1574.77,199.73 1590.2,191.163 1605.62,182.41 1621.04,173.468 1636.46,164.331 1651.88,154.998 1667.3,145.463 1682.72,135.722 1698.14,125.772 1713.56,115.608 1728.98,105.225 1744.4,94.6198 1759.82,83.787 1775.25,72.7221 1790.67,61.4204 1806.09,49.877 1821.51,38.0869 "/>
<polyline clip-path="url(#clip992)" style="stroke:#ed5d92; stroke-linecap:round; stroke-linejoin:round; stroke-width:4; stroke-opacity:1; fill:none" points="279.421,507.993 294.842,506.577 310.263,505.098 325.684,503.555 341.105,501.946 356.526,500.272 371.947,498.53 387.367,496.721 402.788,494.843 418.209,492.895 433.63,490.876 449.051,488.785 464.472,486.621 479.893,484.383 495.314,482.069 510.734,479.678 526.155,477.209 541.576,474.661 556.997,472.032 572.418,469.32 587.839,466.525 603.26,463.644 618.68,460.677 634.101,457.621 649.522,454.475 664.943,451.237 680.364,447.906 695.785,444.479 711.206,440.954 726.627,437.331 742.047,433.607 757.468,429.779 772.889,425.846 788.31,421.805 803.731,417.655 819.152,413.393 834.573,409.017 849.994,404.524 865.414,399.912 880.835,395.179 896.256,390.321 911.677,385.337 927.098,380.223 942.519,374.977 957.94,369.596 973.361,364.077 988.781,358.416 1004.2,352.612 1019.62,346.66 1035.04,340.558 1050.46,334.302 1065.89,327.888 1081.31,321.314 1096.73,314.576 1112.15,307.669 1127.57,300.591 1142.99,293.337 1158.41,285.904 1173.83,278.287 1189.25,270.482 1204.67,262.485 1220.09,254.292 1235.52,245.898 1250.94,237.298 1266.36,228.489 1281.78,219.464 1297.2,210.22 1312.62,200.751 1328.04,191.052 1343.46,181.118 1358.88,170.943 1374.3,160.522 1389.72,149.849 1405.14,138.919 1420.57,127.724 1435.99,116.26 1451.41,104.52 1466.83,92.4979 1482.25,80.1867 1497.67,67.5798 1513.09,54.6705 1528.51,41.4516 1543.93,27.9161 1559.35,14.0565 1574.77,-0.134716 1590.2,-14.6653 1605.62,-29.5431 1621.04,-44.7762 1636.46,-60.373 1651.88,-76.3419 1667.3,-92.6917 1682.72,-109.431 1698.14,-126.569 1713.56,-144.116 1728.98,-162.08 1744.4,-180.472 1759.82,-199.301 1775.25,-218.578 1790.67,-238.313 1806.09,-258.518 1821.51,-279.202 "/>
<polyline clip-path="url(#clip992)" style="stroke:#c68125; stroke-linecap:round; stroke-linejoin:round; stroke-width:4; stroke-opacity:1; fill:none" points="279.421,507.993 294.842,505.2 310.263,502.294 325.684,499.271 341.105,496.129 356.526,492.864 371.947,489.473 387.367,485.954 402.788,482.302 418.209,478.514 433.63,474.587 449.051,470.517 464.472,466.299 479.893,461.93 495.314,457.405 510.734,452.721 526.155,447.872 541.576,442.854 556.997,437.662 572.418,432.291 587.839,426.736 603.26,420.992 618.68,415.052 634.101,408.912 649.522,402.565 664.943,396.006 680.364,389.227 695.785,382.223 711.206,374.986 726.627,367.51 742.047,359.788 757.468,351.811 772.889,343.573 788.31,335.065 803.731,326.279 819.152,317.207 834.573,307.839 849.994,298.168 865.414,288.183 880.835,277.875 896.256,267.234 911.677,256.249 927.098,244.911 942.519,233.208 957.94,221.129 973.361,208.662 988.781,195.795 1004.2,182.516 1019.62,168.812 1035.04,154.67 1050.46,140.076 1065.89,125.016 1081.31,109.476 1096.73,93.4399 1112.15,76.8932 1127.57,59.8195 1142.99,42.2026 1158.41,24.0253 1173.83,5.27018 1189.25,-14.0809 1204.67,-34.0466 1220.09,-54.6462 1235.52,-75.8994 1250.94,-97.827 1266.36,-120.45 1281.78,-143.79 1297.2,-167.87 1312.62,-192.713 1328.04,-218.342 1343.46,-244.783 1358.88,-272.062 1374.3,-300.204 1389.72,-329.236 1405.14,-359.187 1420.57,-390.085 1435.99,-421.961 1451.41,-454.844 1466.83,-488.768 1482.25,-523.763 1497.67,-559.865 1513.09,-597.108 1528.51,-635.528 1543.93,-675.162 1559.35,-716.048 1574.77,-758.225 1590.2,-801.735 1605.62,-846.619 1621.04,-892.921 1636.46,-940.685 1651.88,-989.957 1667.3,-1040.79 1682.72,-1093.22 1698.14,-1147.31 1713.56,-1203.1 1728.98,-1260.66 1744.4,-1320.03 1759.82,-1381.28 1775.25,-1444.46 1790.67,-1509.64 1806.09,-1576.87 1821.51,-1646.23 "/>
<polyline clip-path="url(#clip992)" style="stroke:#00a98d; stroke-linecap:round; stroke-linejoin:round; stroke-width:12; stroke-opacity:1; fill:none" points="678.274,600.161 714.009,596.943 731.943,595.253 757.572,592.746 779.386,590.526 803.881,587.938 827.994,585.288 853.571,582.364 879.854,579.234 907.447,575.807 936.238,572.073 966.508,567.967 998.348,563.442 1031.98,558.422 1067.61,552.826 1105.49,546.546 1145.92,539.452 1189.27,531.371 1236,522.08 1286.69,511.281 1342.07,498.566 1403.11,483.358 1471.11,464.82 1547.92,441.672 1636.23,411.846 1740.31,371.727 1867.4,314.356 2025,227.987 2198.86,108.731 2292.37,32.0641 "/>
<polyline clip-path="url(#clip992)" style="stroke:#8e971d; stroke-linecap:round; stroke-linejoin:round; stroke-width:12; stroke-opacity:1; fill:none" points="678.274,600.161 714.009,596.943 731.943,595.253 757.572,592.746 779.386,590.526 803.881,587.938 827.994,585.288 853.571,582.364 879.854,579.234 907.447,575.807 936.238,572.073 966.508,567.967 998.348,563.442 1031.98,558.422 1067.61,552.826 1105.49,546.546 1145.92,539.452 1189.27,531.371 1236,522.08 1286.69,511.281 1342.07,498.566 1403.11,483.358 1471.11,464.82 1547.92,441.672 1636.23,411.846 1740.31,371.727 1867.4,314.356 2025,227.987 2198.86,108.731 2292.37,32.0641 "/>
<polyline clip-path="url(#clip992)" style="stroke:#00a8cb; stroke-linecap:round; stroke-linejoin:round; stroke-width:12; stroke-opacity:1; fill:none" points="678.274,600.161 714.009,596.943 731.943,595.253 757.572,592.746 779.386,590.526 803.881,587.938 827.994,585.288 853.571,582.364 879.854,579.234 907.447,575.807 936.238,572.073 966.508,567.967 998.348,563.442 1031.98,558.422 1067.61,552.826 1105.49,546.546 1145.92,539.452 1189.27,531.371 1236,522.08 1286.69,511.281 1342.07,498.566 1403.11,483.358 1471.11,464.82 1547.92,441.672 1636.23,411.846 1740.31,371.727 1867.4,314.356 2025,227.987 2198.86,108.731 2292.37,32.0641 "/>
<polyline clip-path="url(#clip992)" style="stroke:#9b7fe8; stroke-linecap:round; stroke-linejoin:round; stroke-width:12; stroke-opacity:1; fill:none" points="678.274,600.161 714.009,596.943 731.943,595.253 757.573,592.746 779.386,590.526 803.882,587.938 827.994,585.288 853.572,582.363 879.854,579.234 907.448,575.807 936.239,572.073 966.509,567.967 998.35,563.442 1031.99,558.421 1067.61,552.825 1105.49,546.546 1145.92,539.452 1189.27,531.371 1236,522.08 1286.69,511.281 1342.07,498.565 1403.11,483.358 1471.11,464.819 1547.92,441.671 1636.23,411.845 1740.32,371.725 1867.4,314.354 2025,227.983 2198.87,108.726 2292.37,32.0641 "/>
<path clip-path="url(#clip990)" d="M219.033 1423.18 L2352.76 1423.18 L2352.76 847.244 L219.033 847.244  Z" fill="#ffffff" fill-rule="evenodd" fill-opacity="1"/>
<defs>
  <clipPath id="clip993">
    <rect x="219" y="847" width="2135" height="577"/>
  </clipPath>
</defs>
<polyline clip-path="url(#clip993)" style="stroke:#000000; stroke-linecap:round; stroke-linejoin:round; stroke-width:2; stroke-opacity:0.1; fill:none" points="592.984,1423.18 592.984,847.244 "/>
<polyline clip-path="url(#clip993)" style="stroke:#000000; stroke-linecap:round; stroke-linejoin:round; stroke-width:2; stroke-opacity:0.1; fill:none" points="1032.93,1423.18 1032.93,847.244 "/>
<polyline clip-path="url(#clip993)" style="stroke:#000000; stroke-linecap:round; stroke-linejoin:round; stroke-width:2; stroke-opacity:0.1; fill:none" points="1472.87,1423.18 1472.87,847.244 "/>
<polyline clip-path="url(#clip993)" style="stroke:#000000; stroke-linecap:round; stroke-linejoin:round; stroke-width:2; stroke-opacity:0.1; fill:none" points="1912.81,1423.18 1912.81,847.244 "/>
<polyline clip-path="url(#clip993)" style="stroke:#000000; stroke-linecap:round; stroke-linejoin:round; stroke-width:2; stroke-opacity:0.1; fill:none" points="2352.76,1423.18 2352.76,847.244 "/>
<polyline clip-path="url(#clip990)" style="stroke:#000000; stroke-linecap:round; stroke-linejoin:round; stroke-width:4; stroke-opacity:1; fill:none" points="219.033,1423.18 2352.76,1423.18 "/>
<polyline clip-path="url(#clip990)" style="stroke:#000000; stroke-linecap:round; stroke-linejoin:round; stroke-width:4; stroke-opacity:1; fill:none" points="592.984,1423.18 592.984,1404.28 "/>
<polyline clip-path="url(#clip990)" style="stroke:#000000; stroke-linecap:round; stroke-linejoin:round; stroke-width:4; stroke-opacity:1; fill:none" points="1032.93,1423.18 1032.93,1404.28 "/>
<polyline clip-path="url(#clip990)" style="stroke:#000000; stroke-linecap:round; stroke-linejoin:round; stroke-width:4; stroke-opacity:1; fill:none" points="1472.87,1423.18 1472.87,1404.28 "/>
<polyline clip-path="url(#clip990)" style="stroke:#000000; stroke-linecap:round; stroke-linejoin:round; stroke-width:4; stroke-opacity:1; fill:none" points="1912.81,1423.18 1912.81,1404.28 "/>
<polyline clip-path="url(#clip990)" style="stroke:#000000; stroke-linecap:round; stroke-linejoin:round; stroke-width:4; stroke-opacity:1; fill:none" points="2352.76,1423.18 2352.76,1404.28 "/>
<path clip-path="url(#clip990)" d="M539.605 1468.75 L569.281 1468.75 L569.281 1472.69 L539.605 1472.69 L539.605 1468.75 Z" fill="#000000" fill-rule="nonzero" fill-opacity="1" /><path clip-path="url(#clip990)" d="M589.373 1454.1 Q585.762 1454.1 583.934 1457.66 Q582.128 1461.2 582.128 1468.33 Q582.128 1475.44 583.934 1479.01 Q585.762 1482.55 589.373 1482.55 Q593.008 1482.55 594.813 1479.01 Q596.642 1475.44 596.642 1468.33 Q596.642 1461.2 594.813 1457.66 Q593.008 1454.1 589.373 1454.1 M589.373 1450.39 Q595.183 1450.39 598.239 1455 Q601.318 1459.58 601.318 1468.33 Q601.318 1477.06 598.239 1481.67 Q595.183 1486.25 589.373 1486.25 Q583.563 1486.25 580.484 1481.67 Q577.429 1477.06 577.429 1468.33 Q577.429 1459.58 580.484 1455 Q583.563 1450.39 589.373 1450.39 Z" fill="#000000" fill-rule="nonzero" fill-opacity="1" /><path clip-path="url(#clip990)" d="M609.535 1479.7 L614.419 1479.7 L614.419 1485.58 L609.535 1485.58 L609.535 1479.7 Z" fill="#000000" fill-rule="nonzero" fill-opacity="1" /><path clip-path="url(#clip990)" d="M624.743 1484.86 L624.743 1480.6 Q626.503 1481.44 628.308 1481.88 Q630.114 1482.32 631.85 1482.32 Q636.48 1482.32 638.91 1479.21 Q641.364 1476.09 641.711 1469.75 Q640.368 1471.74 638.308 1472.8 Q636.248 1473.87 633.748 1473.87 Q628.563 1473.87 625.531 1470.74 Q622.521 1467.59 622.521 1462.15 Q622.521 1456.83 625.669 1453.61 Q628.818 1450.39 634.049 1450.39 Q640.044 1450.39 643.192 1455 Q646.364 1459.58 646.364 1468.33 Q646.364 1476.51 642.475 1481.39 Q638.609 1486.25 632.058 1486.25 Q630.299 1486.25 628.493 1485.9 Q626.688 1485.56 624.743 1484.86 M634.049 1470.21 Q637.197 1470.21 639.026 1468.06 Q640.878 1465.9 640.878 1462.15 Q640.878 1458.43 639.026 1456.27 Q637.197 1454.1 634.049 1454.1 Q630.901 1454.1 629.049 1456.27 Q627.22 1458.43 627.22 1462.15 Q627.22 1465.9 629.049 1468.06 Q630.901 1470.21 634.049 1470.21 Z" fill="#000000" fill-rule="nonzero" fill-opacity="1" /><path clip-path="url(#clip990)" d="M979.502 1468.75 L1009.18 1468.75 L1009.18 1472.69 L979.502 1472.69 L979.502 1468.75 Z" fill="#000000" fill-rule="nonzero" fill-opacity="1" /><path clip-path="url(#clip990)" d="M1029.27 1454.1 Q1025.66 1454.1 1023.83 1457.66 Q1022.02 1461.2 1022.02 1468.33 Q1022.02 1475.44 1023.83 1479.01 Q1025.66 1482.55 1029.27 1482.55 Q1032.9 1482.55 1034.71 1479.01 Q1036.54 1475.44 1036.54 1468.33 Q1036.54 1461.2 1034.71 1457.66 Q1032.9 1454.1 1029.27 1454.1 M1029.27 1450.39 Q1035.08 1450.39 1038.14 1455 Q1041.21 1459.58 1041.21 1468.33 Q1041.21 1477.06 1038.14 1481.67 Q1035.08 1486.25 1029.27 1486.25 Q1023.46 1486.25 1020.38 1481.67 Q1017.33 1477.06 1017.33 1468.33 Q1017.33 1459.58 1020.38 1455 Q1023.46 1450.39 1029.27 1450.39 Z" fill="#000000" fill-rule="nonzero" fill-opacity="1" /><path clip-path="url(#clip990)" d="M1049.43 1479.7 L1054.32 1479.7 L1054.32 1485.58 L1049.43 1485.58 L1049.43 1479.7 Z" fill="#000000" fill-rule="nonzero" fill-opacity="1" /><path clip-path="url(#clip990)" d="M1074.5 1469.17 Q1071.17 1469.17 1069.25 1470.95 Q1067.35 1472.73 1067.35 1475.86 Q1067.35 1478.98 1069.25 1480.77 Q1071.17 1482.55 1074.5 1482.55 Q1077.83 1482.55 1079.76 1480.77 Q1081.68 1478.96 1081.68 1475.86 Q1081.68 1472.73 1079.76 1470.95 Q1077.86 1469.17 1074.5 1469.17 M1069.83 1467.18 Q1066.82 1466.44 1065.13 1464.38 Q1063.46 1462.32 1063.46 1459.35 Q1063.46 1455.21 1066.4 1452.8 Q1069.36 1450.39 1074.5 1450.39 Q1079.66 1450.39 1082.6 1452.8 Q1085.54 1455.21 1085.54 1459.35 Q1085.54 1462.32 1083.85 1464.38 Q1082.19 1466.44 1079.2 1467.18 Q1082.58 1467.96 1084.45 1470.26 Q1086.35 1472.55 1086.35 1475.86 Q1086.35 1480.88 1083.27 1483.57 Q1080.22 1486.25 1074.5 1486.25 Q1068.78 1486.25 1065.7 1483.57 Q1062.65 1480.88 1062.65 1475.86 Q1062.65 1472.55 1064.55 1470.26 Q1066.45 1467.96 1069.83 1467.18 M1068.11 1459.79 Q1068.11 1462.48 1069.78 1463.98 Q1071.47 1465.49 1074.5 1465.49 Q1077.51 1465.49 1079.2 1463.98 Q1080.91 1462.48 1080.91 1459.79 Q1080.91 1457.11 1079.2 1455.6 Q1077.51 1454.1 1074.5 1454.1 Q1071.47 1454.1 1069.78 1455.6 Q1068.11 1457.11 1068.11 1459.79 Z" fill="#000000" fill-rule="nonzero" fill-opacity="1" /><path clip-path="url(#clip990)" d="M1419.85 1468.75 L1449.53 1468.75 L1449.53 1472.69 L1419.85 1472.69 L1419.85 1468.75 Z" fill="#000000" fill-rule="nonzero" fill-opacity="1" /><path clip-path="url(#clip990)" d="M1469.62 1454.1 Q1466.01 1454.1 1464.18 1457.66 Q1462.37 1461.2 1462.37 1468.33 Q1462.37 1475.44 1464.18 1479.01 Q1466.01 1482.55 1469.62 1482.55 Q1473.25 1482.55 1475.06 1479.01 Q1476.89 1475.44 1476.89 1468.33 Q1476.89 1461.2 1475.06 1457.66 Q1473.25 1454.1 1469.62 1454.1 M1469.62 1450.39 Q1475.43 1450.39 1478.48 1455 Q1481.56 1459.58 1481.56 1468.33 Q1481.56 1477.06 1478.48 1481.67 Q1475.43 1486.25 1469.62 1486.25 Q1463.81 1486.25 1460.73 1481.67 Q1457.67 1477.06 1457.67 1468.33 Q1457.67 1459.58 1460.73 1455 Q1463.81 1450.39 1469.62 1450.39 Z" fill="#000000" fill-rule="nonzero" fill-opacity="1" /><path clip-path="url(#clip990)" d="M1489.78 1479.7 L1494.66 1479.7 L1494.66 1485.58 L1489.78 1485.58 L1489.78 1479.7 Z" fill="#000000" fill-rule="nonzero" fill-opacity="1" /><path clip-path="url(#clip990)" d="M1503.67 1451.02 L1525.89 1451.02 L1525.89 1453.01 L1513.34 1485.58 L1508.46 1485.58 L1520.27 1454.96 L1503.67 1454.96 L1503.67 1451.02 Z" fill="#000000" fill-rule="nonzero" fill-opacity="1" /><path clip-path="url(#clip990)" d="M1859.26 1468.75 L1888.94 1468.75 L1888.94 1472.69 L1859.26 1472.69 L1859.26 1468.75 Z" fill="#000000" fill-rule="nonzero" fill-opacity="1" /><path clip-path="url(#clip990)" d="M1909.03 1454.1 Q1905.42 1454.1 1903.59 1457.66 Q1901.78 1461.2 1901.78 1468.33 Q1901.78 1475.44 1903.59 1479.01 Q1905.42 1482.55 1909.03 1482.55 Q1912.66 1482.55 1914.47 1479.01 Q1916.3 1475.44 1916.3 1468.33 Q1916.3 1461.2 1914.47 1457.66 Q1912.66 1454.1 1909.03 1454.1 M1909.03 1450.39 Q1914.84 1450.39 1917.89 1455 Q1920.97 1459.58 1920.97 1468.33 Q1920.97 1477.06 1917.89 1481.67 Q1914.84 1486.25 1909.03 1486.25 Q1903.22 1486.25 1900.14 1481.67 Q1897.08 1477.06 1897.08 1468.33 Q1897.08 1459.58 1900.14 1455 Q1903.22 1450.39 1909.03 1450.39 Z" fill="#000000" fill-rule="nonzero" fill-opacity="1" /><path clip-path="url(#clip990)" d="M1929.19 1479.7 L1934.07 1479.7 L1934.07 1485.58 L1929.19 1485.58 L1929.19 1479.7 Z" fill="#000000" fill-rule="nonzero" fill-opacity="1" /><path clip-path="url(#clip990)" d="M1954.84 1466.44 Q1951.69 1466.44 1949.84 1468.59 Q1948.01 1470.74 1948.01 1474.49 Q1948.01 1478.22 1949.84 1480.39 Q1951.69 1482.55 1954.84 1482.55 Q1957.99 1482.55 1959.82 1480.39 Q1961.67 1478.22 1961.67 1474.49 Q1961.67 1470.74 1959.82 1468.59 Q1957.99 1466.44 1954.84 1466.44 M1964.12 1451.78 L1964.12 1456.04 Q1962.36 1455.21 1960.56 1454.77 Q1958.77 1454.33 1957.01 1454.33 Q1952.38 1454.33 1949.93 1457.45 Q1947.5 1460.58 1947.15 1466.9 Q1948.52 1464.89 1950.58 1463.82 Q1952.64 1462.73 1955.12 1462.73 Q1960.32 1462.73 1963.33 1465.9 Q1966.37 1469.05 1966.37 1474.49 Q1966.37 1479.82 1963.22 1483.03 Q1960.07 1486.25 1954.84 1486.25 Q1948.84 1486.25 1945.67 1481.67 Q1942.5 1477.06 1942.5 1468.33 Q1942.5 1460.14 1946.39 1455.28 Q1950.28 1450.39 1956.83 1450.39 Q1958.59 1450.39 1960.37 1450.74 Q1962.18 1451.09 1964.12 1451.78 Z" fill="#000000" fill-rule="nonzero" fill-opacity="1" /><path clip-path="url(#clip990)" d="M2299.78 1468.75 L2329.46 1468.75 L2329.46 1472.69 L2299.78 1472.69 L2299.78 1468.75 Z" fill="#000000" fill-rule="nonzero" fill-opacity="1" /><path clip-path="url(#clip990)" d="M2349.55 1454.1 Q2345.94 1454.1 2344.11 1457.66 Q2342.3 1461.2 2342.3 1468.33 Q2342.3 1475.44 2344.11 1479.01 Q2345.94 1482.55 2349.55 1482.55 Q2353.18 1482.55 2354.99 1479.01 Q2356.82 1475.44 2356.82 1468.33 Q2356.82 1461.2 2354.99 1457.66 Q2353.18 1454.1 2349.55 1454.1 M2349.55 1450.39 Q2355.36 1450.39 2358.42 1455 Q2361.49 1459.58 2361.49 1468.33 Q2361.49 1477.06 2358.42 1481.67 Q2355.36 1486.25 2349.55 1486.25 Q2343.74 1486.25 2340.66 1481.67 Q2337.61 1477.06 2337.61 1468.33 Q2337.61 1459.58 2340.66 1455 Q2343.74 1450.39 2349.55 1450.39 Z" fill="#000000" fill-rule="nonzero" fill-opacity="1" /><path clip-path="url(#clip990)" d="M2369.71 1479.7 L2374.6 1479.7 L2374.6 1485.58 L2369.71 1485.58 L2369.71 1479.7 Z" fill="#000000" fill-rule="nonzero" fill-opacity="1" /><path clip-path="url(#clip990)" d="M2384.83 1451.02 L2403.18 1451.02 L2403.18 1454.96 L2389.11 1454.96 L2389.11 1463.43 Q2390.13 1463.08 2391.15 1462.92 Q2392.17 1462.73 2393.18 1462.73 Q2398.97 1462.73 2402.35 1465.9 Q2405.73 1469.08 2405.73 1474.49 Q2405.73 1480.07 2402.26 1483.17 Q2398.79 1486.25 2392.47 1486.25 Q2390.29 1486.25 2388.02 1485.88 Q2385.78 1485.51 2383.37 1484.77 L2383.37 1480.07 Q2385.45 1481.2 2387.67 1481.76 Q2389.9 1482.32 2392.37 1482.32 Q2396.38 1482.32 2398.72 1480.21 Q2401.05 1478.1 2401.05 1474.49 Q2401.05 1470.88 2398.72 1468.77 Q2396.38 1466.67 2392.37 1466.67 Q2390.5 1466.67 2388.62 1467.08 Q2386.77 1467.5 2384.83 1468.38 L2384.83 1451.02 Z" fill="#000000" fill-rule="nonzero" fill-opacity="1" /><path clip-path="url(#clip990)" d="M1273.67 1535.07 Q1273.67 1539.77 1271.29 1544.31 Q1268.94 1548.85 1265.23 1551.65 Q1261.53 1554.42 1257.76 1554.42 Q1255.51 1554.42 1253.99 1553.2 Q1252.51 1551.94 1251.71 1550.17 Q1251.1 1552.36 1249.78 1557.61 Q1248.45 1562.86 1248.45 1563.37 Q1248.45 1563.66 1248.52 1563.79 Q1248.58 1563.92 1248.87 1564.08 Q1249.16 1564.28 1249.87 1564.34 Q1250.58 1564.44 1251.77 1564.44 Q1252.38 1564.44 1252.61 1564.44 Q1252.87 1564.47 1253.09 1564.63 Q1253.35 1564.79 1253.35 1565.15 Q1253.35 1566.47 1252.16 1566.47 Q1251.1 1566.47 1248.91 1566.37 Q1246.72 1566.27 1245.62 1566.27 Q1244.69 1566.27 1242.82 1566.37 Q1240.95 1566.47 1240.08 1566.47 Q1239.21 1566.47 1239.21 1565.69 Q1239.21 1565.24 1239.34 1564.95 Q1239.44 1564.69 1239.69 1564.57 Q1239.95 1564.47 1240.18 1564.44 Q1240.37 1564.44 1240.76 1564.44 Q1242.24 1564.44 1242.88 1564.18 Q1243.53 1563.95 1243.75 1563.47 Q1244.01 1563.02 1244.3 1561.73 L1251.71 1532.36 Q1252.16 1530.4 1252.16 1529.01 Q1252.16 1527.27 1251.61 1526.63 Q1251.06 1525.98 1250.1 1525.98 Q1248.42 1525.98 1247.33 1527.98 Q1246.23 1529.98 1245.3 1533.84 Q1245.01 1534.9 1244.82 1535.13 Q1244.65 1535.36 1244.17 1535.36 Q1243.37 1535.32 1243.37 1534.68 Q1243.37 1534.52 1243.62 1533.49 Q1243.88 1532.42 1244.36 1530.88 Q1244.88 1529.3 1245.43 1528.3 Q1245.75 1527.63 1246.04 1527.17 Q1246.33 1526.72 1246.91 1526.02 Q1247.52 1525.31 1248.39 1524.92 Q1249.26 1524.53 1250.32 1524.53 Q1252.38 1524.53 1254.09 1525.76 Q1255.8 1526.98 1256.25 1529.46 Q1258.08 1527.3 1260.34 1525.92 Q1262.59 1524.53 1264.88 1524.53 Q1268.68 1524.53 1271.16 1527.5 Q1273.67 1530.43 1273.67 1535.07 M1268.91 1532.17 Q1268.91 1529.24 1267.78 1527.63 Q1266.68 1525.98 1264.69 1525.98 Q1262.21 1525.98 1259.34 1528.5 Q1256.51 1530.88 1255.93 1533.1 L1252.67 1546.02 L1252.48 1547.08 Q1252.48 1547.27 1252.58 1547.85 Q1252.71 1548.4 1253.06 1549.3 Q1253.45 1550.2 1253.96 1551.01 Q1254.51 1551.78 1255.48 1552.36 Q1256.47 1552.94 1257.7 1552.94 Q1259.66 1552.94 1261.79 1551.2 Q1263.95 1549.46 1265.56 1546.18 Q1266.55 1544.05 1267.71 1539.48 Q1268.91 1534.87 1268.91 1532.17 Z" fill="#000000" fill-rule="nonzero" fill-opacity="1" /><path clip-path="url(#clip990)" d="M1280.3 1569.04 Q1278.4 1569.04 1278.4 1567.72 Q1278.4 1566.4 1280.37 1566.4 L1316.53 1566.4 Q1318.5 1566.4 1318.5 1567.72 Q1318.5 1569.04 1316.66 1569.04 L1280.3 1569.04 Z" fill="#000000" fill-rule="nonzero" fill-opacity="1" /><path clip-path="url(#clip990)" d="M1299.91 1532.59 Q1299.91 1522.89 1302.36 1517.61 Q1305.77 1509.75 1313.83 1509.75 Q1315.53 1509.75 1317.3 1510.23 Q1319.11 1510.69 1321.36 1512.46 Q1323.65 1514.23 1325.03 1517.13 Q1327.67 1522.73 1327.67 1532.59 Q1327.67 1542.21 1325.23 1547.46 Q1321.65 1555.13 1313.76 1555.13 Q1310.8 1555.13 1307.77 1553.62 Q1304.78 1552.1 1302.88 1548.46 Q1299.91 1543.02 1299.91 1532.59 M1305.39 1531.78 Q1305.39 1541.73 1306.1 1545.69 Q1306.9 1549.98 1309.09 1551.84 Q1311.31 1553.68 1313.76 1553.68 Q1316.4 1553.68 1318.59 1551.72 Q1320.81 1549.72 1321.49 1545.44 Q1322.23 1541.22 1322.2 1531.78 Q1322.2 1522.6 1321.56 1518.93 Q1320.69 1514.65 1318.37 1512.94 Q1316.08 1511.2 1313.76 1511.2 Q1312.89 1511.2 1311.96 1511.46 Q1311.06 1511.72 1309.74 1512.46 Q1308.42 1513.2 1307.39 1515.03 Q1306.39 1516.87 1305.9 1519.64 Q1305.39 1523.21 1305.39 1531.78 Z" fill="#000000" fill-rule="nonzero" fill-opacity="1" /><polyline clip-path="url(#clip993)" style="stroke:#000000; stroke-linecap:round; stroke-linejoin:round; stroke-width:2; stroke-opacity:0.1; fill:none" points="219.033,1411.37 2352.76,1411.37 "/>
<polyline clip-path="url(#clip993)" style="stroke:#000000; stroke-linecap:round; stroke-linejoin:round; stroke-width:2; stroke-opacity:0.1; fill:none" points="219.033,1281.59 2352.76,1281.59 "/>
<polyline clip-path="url(#clip993)" style="stroke:#000000; stroke-linecap:round; stroke-linejoin:round; stroke-width:2; stroke-opacity:0.1; fill:none" points="219.033,1151.82 2352.76,1151.82 "/>
<polyline clip-path="url(#clip993)" style="stroke:#000000; stroke-linecap:round; stroke-linejoin:round; stroke-width:2; stroke-opacity:0.1; fill:none" points="219.033,1022.04 2352.76,1022.04 "/>
<polyline clip-path="url(#clip993)" style="stroke:#000000; stroke-linecap:round; stroke-linejoin:round; stroke-width:2; stroke-opacity:0.1; fill:none" points="219.033,892.27 2352.76,892.27 "/>
<polyline clip-path="url(#clip990)" style="stroke:#000000; stroke-linecap:round; stroke-linejoin:round; stroke-width:4; stroke-opacity:1; fill:none" points="219.033,1423.18 219.033,847.244 "/>
<polyline clip-path="url(#clip990)" style="stroke:#000000; stroke-linecap:round; stroke-linejoin:round; stroke-width:4; stroke-opacity:1; fill:none" points="219.033,1411.37 237.931,1411.37 "/>
<polyline clip-path="url(#clip990)" style="stroke:#000000; stroke-linecap:round; stroke-linejoin:round; stroke-width:4; stroke-opacity:1; fill:none" points="219.033,1281.59 237.931,1281.59 "/>
<polyline clip-path="url(#clip990)" style="stroke:#000000; stroke-linecap:round; stroke-linejoin:round; stroke-width:4; stroke-opacity:1; fill:none" points="219.033,1151.82 237.931,1151.82 "/>
<polyline clip-path="url(#clip990)" style="stroke:#000000; stroke-linecap:round; stroke-linejoin:round; stroke-width:4; stroke-opacity:1; fill:none" points="219.033,1022.04 237.931,1022.04 "/>
<polyline clip-path="url(#clip990)" style="stroke:#000000; stroke-linecap:round; stroke-linejoin:round; stroke-width:4; stroke-opacity:1; fill:none" points="219.033,892.27 237.931,892.27 "/>
<path clip-path="url(#clip990)" d="M126.853 1397.17 Q123.242 1397.17 121.413 1400.73 Q119.607 1404.27 119.607 1411.4 Q119.607 1418.51 121.413 1422.07 Q123.242 1425.61 126.853 1425.61 Q130.487 1425.61 132.292 1422.07 Q134.121 1418.51 134.121 1411.4 Q134.121 1404.27 132.292 1400.73 Q130.487 1397.17 126.853 1397.17 M126.853 1393.46 Q132.663 1393.46 135.718 1398.07 Q138.797 1402.65 138.797 1411.4 Q138.797 1420.13 135.718 1424.74 Q132.663 1429.32 126.853 1429.32 Q121.043 1429.32 117.964 1424.74 Q114.908 1420.13 114.908 1411.4 Q114.908 1402.65 117.964 1398.07 Q121.043 1393.46 126.853 1393.46 Z" fill="#000000" fill-rule="nonzero" fill-opacity="1" /><path clip-path="url(#clip990)" d="M147.015 1422.77 L151.899 1422.77 L151.899 1428.65 L147.015 1428.65 L147.015 1422.77 Z" fill="#000000" fill-rule="nonzero" fill-opacity="1" /><path clip-path="url(#clip990)" d="M162.13 1394.09 L180.487 1394.09 L180.487 1398.02 L166.413 1398.02 L166.413 1406.49 Q167.431 1406.15 168.45 1405.99 Q169.468 1405.8 170.487 1405.8 Q176.274 1405.8 179.653 1408.97 Q183.033 1412.14 183.033 1417.56 Q183.033 1423.14 179.561 1426.24 Q176.089 1429.32 169.769 1429.32 Q167.593 1429.32 165.325 1428.95 Q163.079 1428.58 160.672 1427.84 L160.672 1423.14 Q162.755 1424.27 164.977 1424.83 Q167.2 1425.38 169.677 1425.38 Q173.681 1425.38 176.019 1423.28 Q178.357 1421.17 178.357 1417.56 Q178.357 1413.95 176.019 1411.84 Q173.681 1409.74 169.677 1409.74 Q167.802 1409.74 165.927 1410.15 Q164.075 1410.57 162.13 1411.45 L162.13 1394.09 Z" fill="#000000" fill-rule="nonzero" fill-opacity="1" /><path clip-path="url(#clip990)" d="M116.668 1294.94 L124.306 1294.94 L124.306 1268.57 L115.996 1270.24 L115.996 1265.98 L124.26 1264.31 L128.936 1264.31 L128.936 1294.94 L136.575 1294.94 L136.575 1298.87 L116.668 1298.87 L116.668 1294.94 Z" fill="#000000" fill-rule="nonzero" fill-opacity="1" /><path clip-path="url(#clip990)" d="M146.019 1292.99 L150.903 1292.99 L150.903 1298.87 L146.019 1298.87 L146.019 1292.99 Z" fill="#000000" fill-rule="nonzero" fill-opacity="1" /><path clip-path="url(#clip990)" d="M171.089 1267.39 Q167.477 1267.39 165.649 1270.96 Q163.843 1274.5 163.843 1281.63 Q163.843 1288.73 165.649 1292.3 Q167.477 1295.84 171.089 1295.84 Q174.723 1295.84 176.528 1292.3 Q178.357 1288.73 178.357 1281.63 Q178.357 1274.5 176.528 1270.96 Q174.723 1267.39 171.089 1267.39 M171.089 1263.69 Q176.899 1263.69 179.954 1268.29 Q183.033 1272.88 183.033 1281.63 Q183.033 1290.35 179.954 1294.96 Q176.899 1299.54 171.089 1299.54 Q165.278 1299.54 162.2 1294.96 Q159.144 1290.35 159.144 1281.63 Q159.144 1272.88 162.2 1268.29 Q165.278 1263.69 171.089 1263.69 Z" fill="#000000" fill-rule="nonzero" fill-opacity="1" /><path clip-path="url(#clip990)" d="M117.663 1165.16 L125.302 1165.16 L125.302 1138.8 L116.992 1140.46 L116.992 1136.21 L125.255 1134.54 L129.931 1134.54 L129.931 1165.16 L137.57 1165.16 L137.57 1169.1 L117.663 1169.1 L117.663 1165.16 Z" fill="#000000" fill-rule="nonzero" fill-opacity="1" /><path clip-path="url(#clip990)" d="M147.015 1163.22 L151.899 1163.22 L151.899 1169.1 L147.015 1169.1 L147.015 1163.22 Z" fill="#000000" fill-rule="nonzero" fill-opacity="1" /><path clip-path="url(#clip990)" d="M162.13 1134.54 L180.487 1134.54 L180.487 1138.47 L166.413 1138.47 L166.413 1146.95 Q167.431 1146.6 168.45 1146.44 Q169.468 1146.25 170.487 1146.25 Q176.274 1146.25 179.653 1149.42 Q183.033 1152.59 183.033 1158.01 Q183.033 1163.59 179.561 1166.69 Q176.089 1169.77 169.769 1169.77 Q167.593 1169.77 165.325 1169.4 Q163.079 1169.03 160.672 1168.29 L160.672 1163.59 Q162.755 1164.72 164.977 1165.28 Q167.2 1165.83 169.677 1165.83 Q173.681 1165.83 176.019 1163.73 Q178.357 1161.62 178.357 1158.01 Q178.357 1154.4 176.019 1152.29 Q173.681 1150.19 169.677 1150.19 Q167.802 1150.19 165.927 1150.6 Q164.075 1151.02 162.13 1151.9 L162.13 1134.54 Z" fill="#000000" fill-rule="nonzero" fill-opacity="1" /><path clip-path="url(#clip990)" d="M119.885 1035.39 L136.204 1035.39 L136.204 1039.32 L114.26 1039.32 L114.26 1035.39 Q116.922 1032.63 121.505 1028.01 Q126.112 1023.35 127.292 1022.01 Q129.538 1019.49 130.417 1017.75 Q131.32 1015.99 131.32 1014.3 Q131.32 1011.55 129.376 1009.81 Q127.455 1008.07 124.353 1008.07 Q122.154 1008.07 119.7 1008.84 Q117.269 1009.6 114.492 1011.15 L114.492 1006.43 Q117.316 1005.3 119.769 1004.72 Q122.223 1004.14 124.26 1004.14 Q129.63 1004.14 132.825 1006.82 Q136.019 1009.51 136.019 1014 Q136.019 1016.13 135.209 1018.05 Q134.422 1019.95 132.316 1022.54 Q131.737 1023.21 128.635 1026.43 Q125.533 1029.63 119.885 1035.39 Z" fill="#000000" fill-rule="nonzero" fill-opacity="1" /><path clip-path="url(#clip990)" d="M146.019 1033.44 L150.903 1033.44 L150.903 1039.32 L146.019 1039.32 L146.019 1033.44 Z" fill="#000000" fill-rule="nonzero" fill-opacity="1" /><path clip-path="url(#clip990)" d="M171.089 1007.84 Q167.477 1007.84 165.649 1011.41 Q163.843 1014.95 163.843 1022.08 Q163.843 1029.19 165.649 1032.75 Q167.477 1036.29 171.089 1036.29 Q174.723 1036.29 176.528 1032.75 Q178.357 1029.19 178.357 1022.08 Q178.357 1014.95 176.528 1011.41 Q174.723 1007.84 171.089 1007.84 M171.089 1004.14 Q176.899 1004.14 179.954 1008.75 Q183.033 1013.33 183.033 1022.08 Q183.033 1030.81 179.954 1035.41 Q176.899 1040 171.089 1040 Q165.278 1040 162.2 1035.41 Q159.144 1030.81 159.144 1022.08 Q159.144 1013.33 162.2 1008.75 Q165.278 1004.14 171.089 1004.14 Z" fill="#000000" fill-rule="nonzero" fill-opacity="1" /><path clip-path="url(#clip990)" d="M120.88 905.615 L137.2 905.615 L137.2 909.55 L115.256 909.55 L115.256 905.615 Q117.918 902.861 122.501 898.231 Q127.107 893.578 128.288 892.236 Q130.533 889.713 131.413 887.976 Q132.316 886.217 132.316 884.527 Q132.316 881.773 130.371 880.037 Q128.45 878.301 125.348 878.301 Q123.149 878.301 120.695 879.064 Q118.265 879.828 115.487 881.379 L115.487 876.657 Q118.311 875.523 120.765 874.944 Q123.218 874.365 125.255 874.365 Q130.626 874.365 133.82 877.051 Q137.015 879.736 137.015 884.226 Q137.015 886.356 136.204 888.277 Q135.417 890.176 133.311 892.768 Q132.732 893.439 129.63 896.657 Q126.529 899.851 120.88 905.615 Z" fill="#000000" fill-rule="nonzero" fill-opacity="1" /><path clip-path="url(#clip990)" d="M147.015 903.671 L151.899 903.671 L151.899 909.55 L147.015 909.55 L147.015 903.671 Z" fill="#000000" fill-rule="nonzero" fill-opacity="1" /><path clip-path="url(#clip990)" d="M162.13 874.99 L180.487 874.99 L180.487 878.926 L166.413 878.926 L166.413 887.398 Q167.431 887.051 168.45 886.888 Q169.468 886.703 170.487 886.703 Q176.274 886.703 179.653 889.875 Q183.033 893.046 183.033 898.462 Q183.033 904.041 179.561 907.143 Q176.089 910.222 169.769 910.222 Q167.593 910.222 165.325 909.851 Q163.079 909.481 160.672 908.74 L160.672 904.041 Q162.755 905.175 164.977 905.731 Q167.2 906.287 169.677 906.287 Q173.681 906.287 176.019 904.18 Q178.357 902.074 178.357 898.462 Q178.357 894.851 176.019 892.745 Q173.681 890.638 169.677 890.638 Q167.802 890.638 165.927 891.055 Q164.075 891.472 162.13 892.351 L162.13 874.99 Z" fill="#000000" fill-rule="nonzero" fill-opacity="1" /><path clip-path="url(#clip990)" d="M36.576 1117.52 Q38.8304 1117.52 38.8304 1120.78 L38.8304 1131.85 L61.4067 1136.27 Q61.9864 1136.36 62.3085 1136.49 Q62.6305 1136.59 63.178 1136.88 Q63.6933 1137.14 63.951 1137.68 Q64.2408 1138.2 64.2408 1138.97 Q64.2408 1139.94 63.6611 1140.42 Q63.1136 1140.87 62.4373 1140.87 Q62.0186 1140.87 60.0218 1140.23 L38.8304 1133.75 L38.8304 1139.23 Q38.8304 1144.38 43.9189 1147.6 Q44.5952 1148.12 44.6596 1148.41 Q44.6918 1148.54 44.6918 1148.67 Q44.6918 1149.02 44.5308 1149.25 Q44.3698 1149.44 44.2088 1149.44 L44.0477 1149.47 Q43.8223 1149.47 42.9205 1148.96 Q41.9866 1148.41 40.6017 1147.44 Q39.2168 1146.44 38.1219 1145.44 Q36.7048 1144.12 35.9641 1142.64 Q35.1911 1141.16 35.0945 1140.42 Q34.9979 1139.65 34.9979 1138.65 L34.9979 1120.16 Q34.9979 1119.33 35.0623 1118.88 Q35.0945 1118.42 35.481 1117.97 Q35.8352 1117.52 36.576 1117.52 Z" fill="#000000" fill-rule="nonzero" fill-opacity="1" /><polyline clip-path="url(#clip993)" style="stroke:#009af9; stroke-linecap:round; stroke-linejoin:round; stroke-width:4; stroke-opacity:1; fill:none" points="219.033,1406.88 221.169,1405.28 223.305,1403.71 225.441,1402.17 227.576,1400.66 229.712,1399.17 231.848,1397.71 233.984,1396.28 236.12,1394.87 238.256,1393.48 240.392,1392.11 242.527,1390.77 244.663,1389.44 246.799,1388.13 248.935,1386.84 251.071,1385.57 253.207,1384.32 255.343,1383.08 257.478,1381.86 259.614,1380.65 261.75,1379.46 263.886,1378.28 266.022,1377.12 268.158,1375.97 270.294,1374.83 272.429,1373.71 274.565,1372.6 276.701,1371.5 278.837,1370.41 280.973,1369.33 283.109,1368.26 285.245,1367.21 287.38,1366.16 289.516,1365.13 291.652,1364.1 293.788,1363.08 295.924,1362.08 298.06,1361.08 300.196,1360.09 302.331,1359.11 304.467,1358.13 306.603,1357.17 308.739,1356.21 310.875,1355.26 313.011,1354.32 315.147,1353.39 317.282,1352.46 319.418,1351.54 321.554,1350.63 323.69,1349.72 325.826,1348.82 327.962,1347.93 330.098,1347.04 332.233,1346.16 334.369,1345.29 336.505,1344.42 338.641,1343.56 340.777,1342.7 342.913,1341.85 345.049,1341 347.184,1340.16 349.32,1339.33 351.456,1338.5 353.592,1337.68 355.728,1336.86 357.864,1336.04 360,1335.23 362.135,1334.43 364.271,1333.63 366.407,1332.83 368.543,1332.04 370.679,1331.25 372.815,1330.47 374.951,1329.69 377.086,1328.92 379.222,1328.15 381.358,1327.38 383.494,1326.62 385.63,1325.86 387.766,1325.11 389.902,1324.36 392.038,1323.61 394.173,1322.87 396.309,1322.13 398.445,1321.39 400.581,1320.66 402.717,1319.93 404.853,1319.21 406.989,1318.48 409.124,1317.77 411.26,1317.05 413.396,1316.34 415.532,1315.63 417.668,1314.92 419.804,1314.22 421.94,1313.52 424.075,1312.82 426.211,1312.13 428.347,1311.44 430.483,1310.75 432.619,1310.06 434.755,1309.38 436.891,1308.7 439.026,1308.02 441.162,1307.35 443.298,1306.68 445.434,1306.01 447.57,1305.34 449.706,1304.68 451.842,1304.02 453.977,1303.36 456.113,1302.7 458.249,1302.05 460.385,1301.39 462.521,1300.74 464.657,1300.1 466.793,1299.45 468.928,1298.81 471.064,1298.17 473.2,1297.53 475.336,1296.89 477.472,1296.26 479.608,1295.63 481.744,1295 483.879,1294.37 486.015,1293.74 488.151,1293.12 490.287,1292.5 492.423,1291.88 494.559,1291.26 496.695,1290.64 498.83,1290.03 500.966,1289.42 503.102,1288.81 505.238,1288.2 507.374,1287.59 509.51,1286.99 511.646,1286.38 513.781,1285.78 515.917,1285.18 518.053,1284.58 520.189,1283.99 522.325,1283.39 524.461,1282.8 526.597,1282.21 528.732,1281.62 530.868,1281.03 533.004,1280.44 535.14,1279.86 537.276,1279.27 539.412,1278.69 541.548,1278.11 543.683,1277.53 545.819,1276.96 547.955,1276.38 550.091,1275.81 552.227,1275.23 554.363,1274.66 556.499,1274.09 558.634,1273.52 560.77,1272.95 562.906,1272.39 565.042,1271.82 567.178,1271.26 569.314,1270.7 571.45,1270.14 573.586,1269.58 575.721,1269.02 577.857,1268.46 579.993,1267.91 582.129,1267.35 584.265,1266.8 586.401,1266.25 588.537,1265.7 590.672,1265.15 592.808,1264.6 594.944,1264.05 597.08,1263.51 599.216,1262.96 601.352,1262.42 603.488,1261.88 605.623,1261.33 607.759,1260.79 609.895,1260.25 612.031,1259.72 614.167,1259.18 616.303,1258.64 618.439,1258.11 620.574,1257.57 622.71,1257.04 624.846,1256.51 626.982,1255.98 629.118,1255.45 631.254,1254.92 633.39,1254.39 635.525,1253.87 637.661,1253.34 639.797,1252.81 641.933,1252.29 644.069,1251.77 646.205,1251.25 648.341,1250.72 650.476,1250.2 652.612,1249.68 654.748,1249.17 656.884,1248.65 659.02,1248.13 661.156,1247.62 663.292,1247.1 665.427,1246.59 667.563,1246.07 669.699,1245.56 671.835,1245.05 673.971,1244.54 676.107,1244.03 678.243,1243.52 680.378,1243.01 682.514,1242.5 684.65,1242 686.786,1241.49 688.922,1240.99 691.058,1240.48 693.194,1239.98 695.329,1239.48 697.465,1238.97 699.601,1238.47 701.737,1237.97 703.873,1237.47 706.009,1236.97 708.145,1236.48 710.28,1235.98 712.416,1235.48 714.552,1234.98 716.688,1234.49 718.824,1233.99 720.96,1233.5 723.096,1233.01 725.231,1232.51 727.367,1232.02 729.503,1231.53 731.639,1231.04 733.775,1230.55 735.911,1230.06 738.047,1229.57 740.182,1229.08 742.318,1228.59 744.454,1228.11 746.59,1227.62 748.726,1227.13 750.862,1226.65 752.998,1226.16 755.134,1225.68 757.269,1225.2 759.405,1224.71 761.541,1224.23 763.677,1223.75 765.813,1223.27 767.949,1222.79 770.085,1222.31 772.22,1221.83 774.356,1221.35 776.492,1220.87 778.628,1220.39 780.764,1219.92 782.9,1219.44 785.036,1218.96 787.171,1218.49 789.307,1218.01 791.443,1217.54 793.579,1217.06 795.715,1216.59 797.851,1216.11 799.987,1215.64 802.122,1215.17 804.258,1214.7 806.394,1214.23 808.53,1213.76 810.666,1213.29 812.802,1212.82 814.938,1212.35 817.073,1211.88 819.209,1211.41 821.345,1210.94 823.481,1210.47 825.617,1210.01 827.753,1209.54 829.889,1209.07 832.024,1208.61 834.16,1208.14 836.296,1207.68 838.432,1207.21 840.568,1206.75 842.704,1206.28 844.84,1205.82 846.975,1205.36 849.111,1204.89 851.247,1204.43 853.383,1203.97 855.519,1203.51 857.655,1203.05 859.791,1202.59 861.926,1202.13 864.062,1201.67 866.198,1201.21 868.334,1200.75 870.47,1200.29 872.606,1199.83 874.742,1199.37 876.877,1198.91 879.013,1198.46 881.149,1198 883.285,1197.54 885.421,1197.09 887.557,1196.63 889.693,1196.18 891.828,1195.72 893.964,1195.27 896.1,1194.81 898.236,1194.36 900.372,1193.9 902.508,1193.45 904.644,1192.99 906.779,1192.54 908.915,1192.09 911.051,1191.64 913.187,1191.18 915.323,1190.73 917.459,1190.28 919.595,1189.83 921.73,1189.38 923.866,1188.93 926.002,1188.48 928.138,1188.03 930.274,1187.58 932.41,1187.13 934.546,1186.68 936.682,1186.23 938.817,1185.78 940.953,1185.33 943.089,1184.88 945.225,1184.44 947.361,1183.99 949.497,1183.54 951.633,1183.09 953.768,1182.65 955.904,1182.2 958.04,1181.75 960.176,1181.31 962.312,1180.86 964.448,1180.42 966.584,1179.97 968.719,1179.52 970.855,1179.08 972.991,1178.63 975.127,1178.19 977.263,1177.75 979.399,1177.3 981.535,1176.86 983.67,1176.41 985.806,1175.97 987.942,1175.53 990.078,1175.08 992.214,1174.64 994.35,1174.2 996.486,1173.76 998.621,1173.31 1000.76,1172.87 1002.89,1172.43 1005.03,1171.99 1007.16,1171.55 1009.3,1171.1 1011.44,1170.66 1013.57,1170.22 1015.71,1169.78 1017.84,1169.34 1019.98,1168.9 1022.12,1168.46 1024.25,1168.02 1026.39,1167.58 1028.52,1167.14 1030.66,1166.7 1032.8,1166.26 1034.93,1165.82 1037.07,1165.38 1039.2,1164.94 1041.34,1164.5 1043.47,1164.07 1045.61,1163.63 1047.75,1163.19 1049.88,1162.75 1052.02,1162.31 1054.15,1161.87 1056.29,1161.44 1058.43,1161 1060.56,1160.56 1062.7,1160.12 1064.83,1159.69 1066.97,1159.25 1069.1,1158.81 1071.24,1158.37 1073.38,1157.94 1075.51,1157.5 1077.65,1157.06 1079.78,1156.63 1081.92,1156.19 1084.06,1155.76 1086.19,1155.32 1088.33,1154.88 1090.46,1154.45 1092.6,1154.01 1094.74,1153.58 1096.87,1153.14 1099.01,1152.7 1101.14,1152.27 1103.28,1151.83 1105.41,1151.4 1107.55,1150.96 1109.69,1150.53 1111.82,1150.09 1113.96,1149.66 1116.09,1149.22 1118.23,1148.79 1120.37,1148.35 1122.5,1147.92 1124.64,1147.49 1126.77,1147.05 1128.91,1146.62 1131.04,1146.18 1133.18,1145.75 1135.32,1145.31 1137.45,1144.88 1139.59,1144.45 1141.72,1144.01 1143.86,1143.58 1146,1143.14 1148.13,1142.71 1150.27,1142.28 1152.4,1141.84 1154.54,1141.41 1156.67,1140.98 1158.81,1140.54 1160.95,1140.11 1163.08,1139.68 1165.22,1139.24 1167.35,1138.81 1169.49,1138.38 1171.63,1137.94 1173.76,1137.51 1175.9,1137.08 1178.03,1136.64 1180.17,1136.21 1182.31,1135.78 1184.44,1135.34 1186.58,1134.91 1188.71,1134.48 1190.85,1134.04 1192.98,1133.61 1195.12,1133.18 1197.26,1132.74 1199.39,1132.31 1201.53,1131.88 1203.66,1131.45 1205.8,1131.01 1207.94,1130.58 1210.07,1130.15 1212.21,1129.71 1214.34,1129.28 1216.48,1128.85 1218.61,1128.42 1220.75,1127.98 1222.89,1127.55 1225.02,1127.12 1227.16,1126.68 1229.29,1126.25 1231.43,1125.82 1233.57,1125.39 1235.7,1124.95 1237.84,1124.52 1239.97,1124.09 1242.11,1123.65 1244.25,1123.22 1246.38,1122.79 1248.52,1122.36 1250.65,1121.92 1252.79,1121.49 1254.92,1121.06 1257.06,1120.62 1259.2,1120.19 1261.33,1119.76 1263.47,1119.32 1265.6,1118.89 1267.74,1118.46 1269.88,1118.02 1272.01,1117.59 1274.15,1117.16 1276.28,1116.72 1278.42,1116.29 1280.55,1115.86 1282.69,1115.42 1284.83,1114.99 1286.96,1114.56 1289.1,1114.12 1291.23,1113.69 1293.37,1113.26 1295.51,1112.82 1297.64,1112.39 1299.78,1111.95 1301.91,1111.52 1304.05,1111.09 1306.19,1110.65 1308.32,1110.22 1310.46,1109.78 1312.59,1109.35 1314.73,1108.92 1316.86,1108.48 1319,1108.05 1321.14,1107.61 1323.27,1107.18 1325.41,1106.74 1327.54,1106.31 1329.68,1105.87 1331.82,1105.44 1333.95,1105 1336.09,1104.57 1338.22,1104.13 1340.36,1103.7 1342.49,1103.26 1344.63,1102.83 1346.77,1102.39 1348.9,1101.96 1351.04,1101.52 1353.17,1101.09 1355.31,1100.65 1357.45,1100.21 1359.58,1099.78 1361.72,1099.34 1363.85,1098.91 1365.99,1098.47 1368.12,1098.03 1370.26,1097.6 1372.4,1097.16 1374.53,1096.72 1376.67,1096.29 1378.8,1095.85 1380.94,1095.41 1383.08,1094.98 1385.21,1094.54 1387.35,1094.1 1389.48,1093.66 1391.62,1093.23 1393.76,1092.79 1395.89,1092.35 1398.03,1091.91 1400.16,1091.48 1402.3,1091.04 1404.43,1090.6 1406.57,1090.16 1408.71,1089.72 1410.84,1089.28 1412.98,1088.85 1415.11,1088.41 1417.25,1087.97 1419.39,1087.53 1421.52,1087.09 1423.66,1086.65 1425.79,1086.21 1427.93,1085.77 1430.06,1085.33 1432.2,1084.89 1434.34,1084.45 1436.47,1084.01 1438.61,1083.57 1440.74,1083.13 1442.88,1082.69 1445.02,1082.25 1447.15,1081.81 1449.29,1081.37 1451.42,1080.93 1453.56,1080.48 1455.7,1080.04 1457.83,1079.6 1459.97,1079.16 1462.1,1078.72 1464.24,1078.27 1466.37,1077.83 1468.51,1077.39 1470.65,1076.95 1472.78,1076.5 1474.92,1076.06 1477.05,1075.62 1479.19,1075.18 1481.33,1074.73 1483.46,1074.29 1485.6,1073.84 1487.73,1073.4 1489.87,1072.96 1492,1072.51 1494.14,1072.07 1496.28,1071.62 1498.41,1071.18 1500.55,1070.73 1502.68,1070.29 1504.82,1069.84 1506.96,1069.4 1509.09,1068.95 1511.23,1068.5 1513.36,1068.06 1515.5,1067.61 1517.64,1067.17 1519.77,1066.72 1521.91,1066.27 1524.04,1065.82 1526.18,1065.38 1528.31,1064.93 1530.45,1064.48 1532.59,1064.03 1534.72,1063.59 1536.86,1063.14 1538.99,1062.69 1541.13,1062.24 1543.27,1061.79 1545.4,1061.34 1547.54,1060.89 1549.67,1060.44 1551.81,1059.99 1553.94,1059.54 1556.08,1059.09 1558.22,1058.64 1560.35,1058.19 1562.49,1057.74 1564.62,1057.29 1566.76,1056.84 1568.9,1056.39 1571.03,1055.94 1573.17,1055.48 1575.3,1055.03 1577.44,1054.58 1579.58,1054.13 1581.71,1053.67 1583.85,1053.22 1585.98,1052.77 1588.12,1052.31 1590.25,1051.86 1592.39,1051.41 1594.53,1050.95 1596.66,1050.5 1598.8,1050.04 1600.93,1049.59 1603.07,1049.13 1605.21,1048.68 1607.34,1048.22 1609.48,1047.77 1611.61,1047.31 1613.75,1046.85 1615.88,1046.4 1618.02,1045.94 1620.16,1045.48 1622.29,1045.03 1624.43,1044.57 1626.56,1044.11 1628.7,1043.65 1630.84,1043.19 1632.97,1042.73 1635.11,1042.27 1637.24,1041.82 1639.38,1041.36 1641.51,1040.9 1643.65,1040.44 1645.79,1039.98 1647.92,1039.52 1650.06,1039.05 1652.19,1038.59 1654.33,1038.13 1656.47,1037.67 1658.6,1037.21 1660.74,1036.75 1662.87,1036.28 1665.01,1035.82 1667.15,1035.36 1669.28,1034.89 1671.42,1034.43 1673.55,1033.97 1675.69,1033.5 1677.82,1033.04 1679.96,1032.57 1682.1,1032.11 1684.23,1031.64 1686.37,1031.18 1688.5,1030.71 1690.64,1030.24 1692.78,1029.78 1694.91,1029.31 1697.05,1028.84 1699.18,1028.38 1701.32,1027.91 1703.45,1027.44 1705.59,1026.97 1707.73,1026.5 1709.86,1026.03 1712,1025.56 1714.13,1025.1 1716.27,1024.63 1718.41,1024.15 1720.54,1023.68 1722.68,1023.21 1724.81,1022.74 1726.95,1022.27 1729.09,1021.8 1731.22,1021.33 1733.36,1020.85 1735.49,1020.38 1737.63,1019.91 1739.76,1019.43 1741.9,1018.96 1744.04,1018.49 1746.17,1018.01 1748.31,1017.54 1750.44,1017.06 1752.58,1016.59 1754.72,1016.11 1756.85,1015.63 1758.99,1015.16 1761.12,1014.68 1763.26,1014.2 1765.39,1013.73 1767.53,1013.25 1769.67,1012.77 1771.8,1012.29 1773.94,1011.81 1776.07,1011.33 1778.21,1010.85 1780.35,1010.37 1782.48,1009.89 1784.62,1009.41 1786.75,1008.93 1788.89,1008.45 1791.03,1007.97 1793.16,1007.49 1795.3,1007 1797.43,1006.52 1799.57,1006.04 1801.7,1005.55 1803.84,1005.07 1805.98,1004.59 1808.11,1004.1 1810.25,1003.62 1812.38,1003.13 1814.52,1002.64 1816.66,1002.16 1818.79,1001.67 1820.93,1001.18 1823.06,1000.7 1825.2,1000.21 1827.33,999.721 1829.47,999.232 1831.61,998.743 1833.74,998.254 1835.88,997.764 1838.01,997.274 1840.15,996.783 1842.29,996.292 1844.42,995.801 1846.56,995.309 1848.69,994.817 1850.83,994.325 1852.96,993.832 1855.1,993.338 1857.24,992.844 1859.37,992.35 1861.51,991.856 1863.64,991.361 1865.78,990.865 1867.92,990.369 1870.05,989.873 1872.19,989.376 1874.32,988.879 1876.46,988.382 1878.6,987.884 1880.73,987.386 1882.87,986.887 1885,986.388 1887.14,985.888 1889.27,985.388 1891.41,984.887 1893.55,984.386 1895.68,983.885 1897.82,983.383 1899.95,982.881 1902.09,982.378 1904.23,981.875 1906.36,981.371 1908.5,980.867 1910.63,980.363 1912.77,979.858 1914.9,979.353 1917.04,978.847 1919.18,978.34 1921.31,977.834 1923.45,977.327 1925.58,976.819 1927.72,976.311 1929.86,975.802 1931.99,975.293 1934.13,974.784 1936.26,974.274 1938.4,973.763 1940.54,973.252 1942.67,972.741 1944.81,972.229 1946.94,971.717 1949.08,971.204 1951.21,970.691 1953.35,970.177 1955.49,969.663 1957.62,969.148 1959.76,968.633 1961.89,968.117 1964.03,967.601 1966.17,967.084 1968.3,966.567 1970.44,966.049 1972.57,965.531 1974.71,965.012 1976.84,964.493 1978.98,963.973 1981.12,963.453 1983.25,962.933 1985.39,962.411 1987.52,961.89 1989.66,961.367 1991.8,960.845 1993.93,960.322 1996.07,959.798 1998.2,959.274 2000.34,958.749 2002.48,958.223 2004.61,957.698 2006.75,957.171 2008.88,956.644 2011.02,956.117 2013.15,955.589 2015.29,955.061 2017.43,954.532 2019.56,954.002 2021.7,953.472 2023.83,952.942 2025.97,952.41 2028.11,951.879 2030.24,951.346 2032.38,950.814 2034.51,950.28 2036.65,949.747 2038.78,949.212 2040.92,948.677 2043.06,948.142 2045.19,947.606 2047.33,947.069 2049.46,946.532 2051.6,945.994 2053.74,945.456 2055.87,944.917 2058.01,944.377 2060.14,943.837 2062.28,943.297 2064.41,942.756 2066.55,942.214 2068.69,941.672 2070.82,941.129 2072.96,940.585 2075.09,940.041 2077.23,939.496 2079.37,938.951 2081.5,938.405 2083.64,937.859 2085.77,937.312 2087.91,936.764 2090.05,936.216 2092.18,935.667 2094.32,935.118 2096.45,934.568 2098.59,934.017 2100.72,933.466 2102.86,932.914 2105,932.362 2107.13,931.809 2109.27,931.255 2111.4,930.701 2113.54,930.146 2115.68,929.591 2117.81,929.034 2119.95,928.478 2122.08,927.92 2124.22,927.362 2126.35,926.804 2128.49,926.244 2130.63,925.684 2132.76,925.124 2134.9,924.563 2137.03,924.001 2139.17,923.438 2141.31,922.875 2143.44,922.311 2145.58,921.747 2147.71,921.182 2149.85,920.616 2151.99,920.05 2154.12,919.483 2156.26,918.915 2158.39,918.347 2160.53,917.778 2162.66,917.208 2164.8,916.637 2166.94,916.066 2169.07,915.495 2171.21,914.922 2173.34,914.349 2175.48,913.775 2177.62,913.201 2179.75,912.626 2181.89,912.05 2184.02,911.474 2186.16,910.896 2188.29,910.318 2190.43,909.74 2192.57,909.161 2194.7,908.581 2196.84,908 2198.97,907.419 2201.11,906.836 2203.25,906.254 2205.38,905.67 2207.52,905.086 2209.65,904.501 2211.79,903.915 2213.93,903.329 2216.06,902.742 2218.2,902.154 2220.33,901.565 2222.47,900.976 2224.6,900.386 2226.74,899.795 2228.88,899.204 2231.01,898.611 2233.15,898.018 2235.28,897.424 2237.42,896.83 2239.56,896.235 2241.69,895.639 2243.83,895.042 2245.96,894.444 2248.1,893.846 2250.23,893.247 2252.37,892.647 2254.51,892.047 2256.64,891.445 2258.78,890.843 2260.91,890.24 2263.05,889.637 2265.19,889.032 2267.32,888.427 2269.46,887.821 2271.59,887.214 2273.73,886.606 2275.86,885.998 2278,885.389 2280.14,884.779 2282.27,884.168 2284.41,883.556 2286.54,882.944 2288.68,882.331 2290.82,881.717 2292.95,881.102 2295.09,880.486 2297.22,879.87 2299.36,879.252 2301.5,878.634 2303.63,878.015 2305.77,877.396 2307.9,876.775 2310.04,876.153 2312.17,875.531 2314.31,874.908 2316.45,874.284 2318.58,873.659 2320.72,873.033 2322.85,872.407 2324.99,871.78 2327.13,871.151 2329.26,870.522 2331.4,869.892 2333.53,869.261 2335.67,868.63 2337.8,867.997 2339.94,867.364 2342.08,866.729 2344.21,866.094 2346.35,865.458 2348.48,864.821 2350.62,864.183 2352.76,863.544 "/>
<path clip-path="url(#clip990)" d="M290.157 970.122 L611.214 970.122 L611.214 866.442 L290.157 866.442  Z" fill="#ffffff" fill-rule="evenodd" fill-opacity="1"/>
<polyline clip-path="url(#clip990)" style="stroke:#000000; stroke-linecap:round; stroke-linejoin:round; stroke-width:4; stroke-opacity:1; fill:none" points="290.157,970.122 611.214,970.122 611.214,866.442 290.157,866.442 290.157,970.122 "/>
<polyline clip-path="url(#clip990)" style="stroke:#009af9; stroke-linecap:round; stroke-linejoin:round; stroke-width:4; stroke-opacity:1; fill:none" points="313.865,918.282 456.113,918.282 "/>
<path clip-path="url(#clip990)" d="M479.821 925.331 L479.821 909.636 L484.081 909.636 L484.081 925.168 Q484.081 928.849 485.516 930.701 Q486.951 932.53 489.821 932.53 Q493.27 932.53 495.261 930.33 Q497.275 928.131 497.275 924.335 L497.275 909.636 L501.534 909.636 L501.534 935.562 L497.275 935.562 L497.275 931.58 Q495.724 933.942 493.664 935.099 Q491.627 936.233 488.918 936.233 Q484.451 936.233 482.136 933.455 Q479.821 930.678 479.821 925.331 M490.539 909.011 L490.539 909.011 Z" fill="#000000" fill-rule="nonzero" fill-opacity="1" /><path clip-path="url(#clip990)" d="M511.719 931.627 L519.358 931.627 L519.358 905.261 L511.048 906.928 L511.048 902.669 L519.312 901.002 L523.988 901.002 L523.988 931.627 L531.627 931.627 L531.627 935.562 L511.719 935.562 L511.719 931.627 Z" fill="#000000" fill-rule="nonzero" fill-opacity="1" /><path clip-path="url(#clip990)" d="M550.701 899.59 Q547.599 904.914 546.094 910.122 Q544.589 915.331 544.589 920.678 Q544.589 926.025 546.094 931.28 Q547.622 936.511 550.701 941.812 L546.997 941.812 Q543.525 936.372 541.789 931.118 Q540.076 925.863 540.076 920.678 Q540.076 915.516 541.789 910.284 Q543.502 905.053 546.997 899.59 L550.701 899.59 Z" fill="#000000" fill-rule="nonzero" fill-opacity="1" /><path clip-path="url(#clip990)" d="M563.177 902.275 L563.177 909.636 L571.95 909.636 L571.95 912.946 L563.177 912.946 L563.177 927.02 Q563.177 930.192 564.034 931.094 Q564.913 931.997 567.575 931.997 L571.95 931.997 L571.95 935.562 L567.575 935.562 Q562.645 935.562 560.77 933.733 Q558.895 931.881 558.895 927.02 L558.895 912.946 L555.77 912.946 L555.77 909.636 L558.895 909.636 L558.895 902.275 L563.177 902.275 Z" fill="#000000" fill-rule="nonzero" fill-opacity="1" /><path clip-path="url(#clip990)" d="M576.881 899.59 L580.585 899.59 Q584.057 905.053 585.77 910.284 Q587.506 915.516 587.506 920.678 Q587.506 925.863 585.77 931.118 Q584.057 936.372 580.585 941.812 L576.881 941.812 Q579.96 936.511 581.464 931.28 Q582.992 926.025 582.992 920.678 Q582.992 915.331 581.464 910.122 Q579.96 904.914 576.881 899.59 Z" fill="#000000" fill-rule="nonzero" fill-opacity="1" /></svg>
